<?xml version="1.0" encoding="UTF-8"?>
<svg id="Capa_1" data-name="Capa 1" xmlns="http://www.w3.org/2000/svg" viewBox="0 0 48 48">
  <defs>
    <style>
      .cls-1 {
        fill: none;
      }

      .cls-2 {
        fill: #f28f31;
      }

      .cls-3 {
        fill: #1dadb5;
      }

      .cls-4 {
        fill: #fff;
      }
    </style>
  </defs>
  <path class="cls-3" d="M28.82,20.48l-.32-.41-.17-.24c-.27-.38-.83-1.17-1.73-1.17h0c-.87,0-1.57.73-1.61,1.65-.04,1.04.35,2.07.74,3.06.49,1.27.95,2.46.42,3.49-.4.77-1.29,1.29-2.73,1.59-1.35.28-2.74.22-3.92-.19-1.09-.37-1.98-1.03-2.58-1.91-.18-.26-.52-.34-.79-.19-.03.01-.05.03-.07.05-.16.12-.25.31-.25.5,0,.12.03.24.11.34.75,1.1,1.85,1.92,3.2,2.38.42.14.87.25,1.33.32h0c-.44,4.68.6,9.51,2.94,13.58.11.2.23.4.35.6.48.81.94,1.6,1.18,2.36.05.17-.07.35-.25.35-.26,0-.51.01-.77.01-1.95,0-3.9-.25-5.8-.75-1.58-.41-3.1-.99-4.54-1.72-.03-.02-.06-.04-.09-.07,0,0-.01-.02-.02-.03,0,0,0-.01-.01-.02,0,0,0-.02-.01-.02,0,0,0,0,0,0,0-.01,0-.02,0-.03,0-.02,0-.05,0-.07,0-.1.01-.2.02-.31,0-.03,0-.07,0-.1,0-.04,0-.09,0-.14h0c0-.06,0-.12,0-.18,0-.15,0-.29,0-.44,0,0,0,0,0,0,0-.05,0-.1,0-.15,0-.02,0-.03,0-.05,0-.12-.01-.23-.02-.35,0-.12-.02-.23-.03-.35,0,0,0-.02,0-.03,0-.07-.01-.14-.02-.21-.01-.13-.03-.25-.05-.38-.02-.12-.04-.24-.06-.36-.01-.08-.03-.16-.04-.24-.01-.06-.02-.13-.04-.19-.01-.06-.02-.11-.03-.17-.02-.12-.05-.24-.08-.36-.01-.06-.03-.11-.04-.17,0,0,0,0,0-.01-.03-.14-.07-.27-.1-.41-.02-.06-.03-.13-.05-.19-.04-.14-.07-.28-.11-.41-.02-.07-.04-.13-.06-.2-.04-.13-.08-.27-.12-.4-.02-.05-.03-.11-.05-.16,0-.01,0-.02-.01-.04-.02-.07-.04-.14-.07-.22-.03-.08-.05-.17-.08-.25-.02-.06-.04-.13-.06-.2,0-.03-.02-.05-.02-.07-.02-.07-.04-.13-.06-.19-.03-.08-.05-.15-.08-.23-.04-.12-.08-.23-.12-.35-.04-.12-.08-.23-.12-.35-.03-.08-.05-.15-.08-.23-.03-.08-.05-.15-.08-.23-.2-.58-.4-1.19-.59-1.77-1.23-3.87-1.65-7.26-1.27-10.35.43-3.47,2.09-6.7,4.55-8.86,1.47-1.28,3.53-2.08,5.53-2.13.07,0,.14,0,.2,0,1.98,0,3.92.73,5.31,2.01,1.39,1.28,2.26,3.04,3.18,4.91.14.28.29.58.43.87,0,0,0,.01,0,.02.09.17-.15.32-.27.17Z"/>
  <path class="cls-3" d="M38.26,28.9s0,.05,0,.08c0,.02,0,.03,0,.05,0,.02,0,.05-.01.07-.09.46-.57.74-1.01.89-.77.26-1.59.31-2.4.31-1.39,0-2.8-.17-4.12-.59-1.26-.4-2.45-1.03-3.43-1.91-.04-.03-.06-.07-.08-.12h0s-.01-.04-.01-.06c0-.01,0-.03,0-.04,0-.03,0-.05.02-.08,0-.01.01-.03.02-.04.14-.24.23-.5.3-.77.01-.06.03-.13.04-.19,0-.03.01-.07.02-.1,0-.07.02-.14.02-.21.02-.2.01-.41,0-.61,0-.02,0-.03,0-.05,0-.04,0-.08-.01-.12,0-.03,0-.05,0-.08,0-.03,0-.06-.01-.09,0-.04-.01-.08-.02-.12-.04-.28-.11-.57-.19-.84-.33-1.11-.88-2.17-1.1-3.31-.02-.09-.03-.17-.04-.26,0-.02,0-.03,0-.05,0-.03,0-.07,0-.1,0-.03,0-.05,0-.08,0-.01,0-.03,0-.04,0-.01,0-.02,0-.03,0-.03,0-.06.01-.08.02-.11.06-.2.11-.29.05-.08.13-.11.22-.11.1,0,.19.02.28.07.15.09.25.23.35.37.36.5.72,1.01,1.08,1.51.25.35.51.71.86.97.35.26.81.41,1.23.28.08-.02.15-.06.23-.04.12.02.2.12.27.22.93,1.27,2.08,2.42,3.5,3.1,1.06.51,2.26.75,3.21,1.46.35.26.67.63.69,1.04Z"/>
  <path class="cls-3" d="M46.77,24c0,11.82-9,21.53-20.52,22.66-.22-1.38-1.09-2.68-1.81-3.93-2.21-3.85-3.2-8.39-2.78-12.82v-.05s.07,0,.1,0c.63,0,1.27-.07,1.91-.2,1.02-.21,1.84-.53,2.46-.97.1-.07.25-.07.34.02,2.02,1.93,5.3,2.82,8.25,2.82.78,0,1.54-.06,2.25-.18,1.14-.2,2.39-.93,2.53-2.19.12-1.09-.72-2.08-1.67-2.63-.95-.55-2.05-.79-3.03-1.3-2.17-1.11-3.52-3.32-4.61-5.49-1.09-2.17-2.09-4.48-3.88-6.13-1.65-1.52-3.9-2.34-6.14-2.34-.08,0-.16,0-.24,0-2.26.06-4.6.94-6.31,2.44-2.79,2.44-4.52,5.98-4.97,9.64-.45,3.65.2,7.37,1.32,10.87.96,3.03,2.29,6.11,2.22,9.23-6.56-3.99-10.94-11.21-10.94-19.46C1.23,11.43,11.43,1.23,24,1.23s22.77,10.19,22.77,22.77Z"/>
  <path d="M46.11,14.66c-1.21-2.86-2.94-5.42-5.14-7.63-2.2-2.2-4.77-3.93-7.63-5.14-2.96-1.25-6.1-1.89-9.34-1.89s-6.38.64-9.34,1.89c-2.86,1.21-5.42,2.94-7.63,5.14-2.2,2.2-3.93,4.77-5.14,7.63C.64,17.62,0,20.76,0,24s.63,6.38,1.89,9.34c1.21,2.86,2.94,5.42,5.14,7.63,2.2,2.2,4.77,3.93,7.63,5.14,2.96,1.25,6.1,1.89,9.34,1.89s6.38-.63,9.34-1.89c2.86-1.21,5.42-2.94,7.63-5.14,2.2-2.2,3.93-4.77,5.14-7.63,1.25-2.96,1.89-6.1,1.89-9.34s-.63-6.38-1.89-9.34ZM24.64,46.65c-.26,0-.51.01-.77.01-1.95,0-3.9-.25-5.8-.75-1.58-.41-3.1-.99-4.54-1.72-.03-.02-.06-.04-.09-.07,0,0-.01-.02-.02-.03,0,0,0-.01-.01-.02,0,0,0-.02-.01-.02,0,0,0,0,0,0,0-.01,0-.02,0-.03,0-.02,0-.05,0-.07,0-.1.01-.2.02-.31,0-.03,0-.07,0-.1,0-.04,0-.09,0-.14h0c0-.06,0-.12,0-.18,0-.15,0-.29,0-.44,0,0,0,0,0,0,0-.05,0-.1,0-.15,0-.02,0-.03,0-.05,0-.12-.01-.23-.02-.35,0-.12-.02-.23-.03-.35,0,0,0-.02,0-.03,0-.07-.02-.14-.02-.21-.01-.13-.03-.25-.05-.38-.02-.12-.04-.24-.06-.36-.01-.08-.03-.16-.04-.24-.01-.06-.02-.13-.04-.19-.01-.06-.02-.11-.03-.17-.02-.12-.05-.24-.08-.36-.01-.06-.03-.11-.04-.17,0,0,0,0,0-.01-.03-.14-.07-.27-.1-.41-.02-.06-.03-.13-.05-.19-.04-.14-.07-.28-.11-.41-.02-.07-.04-.13-.06-.2-.04-.13-.08-.27-.12-.4-.02-.05-.03-.11-.05-.16,0-.01,0-.02-.01-.04-.02-.07-.04-.14-.07-.22-.03-.08-.05-.17-.08-.25-.02-.06-.04-.13-.06-.2,0-.03-.02-.05-.02-.07-.02-.07-.04-.13-.06-.19-.03-.08-.05-.15-.08-.23-.04-.12-.08-.23-.12-.35-.04-.12-.08-.23-.12-.35-.03-.08-.05-.15-.08-.23-.03-.08-.05-.15-.08-.23-.2-.58-.4-1.19-.59-1.77-1.23-3.87-1.65-7.26-1.27-10.35.43-3.47,2.09-6.7,4.55-8.86,1.47-1.28,3.53-2.08,5.53-2.13.07,0,.14,0,.2,0,1.98,0,3.92.73,5.31,2.01,1.39,1.28,2.26,3.04,3.18,4.91.14.28.29.58.43.87,0,0,0,.01,0,.02.09.17-.15.32-.27.17l-.32-.41-.17-.24c-.27-.38-.83-1.17-1.73-1.17h0c-.87,0-1.57.73-1.61,1.65-.04,1.04.35,2.07.74,3.06.49,1.27.95,2.46.42,3.49-.4.77-1.29,1.29-2.73,1.59-1.35.28-2.74.22-3.92-.19-1.09-.37-1.98-1.03-2.58-1.91-.18-.26-.52-.34-.79-.19-.03.01-.05.03-.07.05-.16.12-.25.31-.25.5,0,.12.03.24.11.34.75,1.1,1.85,1.92,3.2,2.38.42.14.87.25,1.33.32h0c-.44,4.68.6,9.51,2.94,13.58.11.2.23.4.35.6.48.81.94,1.6,1.18,2.36.05.17-.07.35-.25.35ZM27.2,27.68s-.01-.04-.01-.06c0-.01,0-.03,0-.04,0-.03,0-.05.02-.08,0-.01.01-.03.02-.04.14-.24.23-.5.3-.77.01-.06.03-.13.04-.19,0-.03.01-.07.02-.1,0-.07.02-.14.02-.21.02-.2.01-.41,0-.61,0-.02,0-.03,0-.05,0-.04,0-.08-.01-.12,0-.03,0-.05,0-.08,0-.03,0-.06-.01-.09,0-.04-.01-.08-.02-.12-.04-.28-.11-.57-.19-.84-.33-1.11-.88-2.17-1.1-3.31-.02-.09-.03-.17-.04-.26,0-.02,0-.03,0-.05,0-.03,0-.07,0-.1,0-.03,0-.05,0-.08,0-.01,0-.03,0-.04,0-.01,0-.02,0-.03,0-.03,0-.06.01-.08.02-.11.06-.2.11-.29.05-.08.13-.11.22-.11.1,0,.19.02.28.07.15.09.25.23.35.37.36.5.72,1.01,1.08,1.51.25.35.51.71.86.97.35.26.81.41,1.23.28.08-.02.15-.06.23-.04.12.02.2.12.27.22.93,1.27,2.08,2.42,3.5,3.1,1.06.51,2.26.75,3.21,1.46.35.26.67.63.69,1.04,0,.03,0,.05,0,.08,0,.02,0,.03,0,.05,0,.02,0,.05-.01.07-.09.46-.57.74-1.01.89-.77.26-1.59.31-2.4.31-1.39,0-2.8-.17-4.12-.59-1.26-.4-2.45-1.03-3.43-1.91-.04-.03-.06-.07-.08-.12h0ZM26.24,46.66c-.22-1.38-1.09-2.68-1.81-3.93-2.21-3.85-3.2-8.39-2.78-12.82v-.05s.07,0,.1,0c.63,0,1.27-.07,1.91-.2,1.02-.21,1.84-.53,2.46-.97.1-.07.25-.07.34.02,2.02,1.93,5.3,2.82,8.25,2.82.78,0,1.54-.06,2.25-.18,1.14-.2,2.39-.93,2.53-2.19.12-1.09-.72-2.08-1.67-2.63-.95-.55-2.05-.79-3.03-1.3-2.17-1.11-3.52-3.32-4.61-5.49-1.09-2.17-2.09-4.48-3.88-6.13-1.65-1.52-3.9-2.34-6.14-2.34-.08,0-.16,0-.24,0-2.26.06-4.6.94-6.31,2.44-2.79,2.44-4.52,5.98-4.97,9.64-.45,3.65.2,7.37,1.32,10.87.96,3.03,2.29,6.11,2.22,9.23-6.56-3.99-10.94-11.21-10.94-19.46C1.23,11.43,11.43,1.23,24,1.23s22.77,10.19,22.77,22.77c0,11.82-9,21.53-20.52,22.66Z"/>
  <path class="cls-4" d="M28.82,20.48l-.32-.41-.17-.24c-.27-.38-.83-1.17-1.73-1.17h0c-.87,0-1.57.73-1.61,1.65-.04,1.04.35,2.07.74,3.06.49,1.27.95,2.46.42,3.49-.4.77-1.29,1.29-2.73,1.59-1.35.28-2.74.22-3.92-.19-1.09-.37-1.98-1.03-2.58-1.91-.18-.26-.52-.34-.79-.19-.03.01-.05.03-.07.05-.16.12-.25.31-.25.5,0,.12.03.24.11.34.75,1.1,1.85,1.92,3.2,2.38.42.14.87.25,1.33.32h0c-.44,4.68.6,9.51,2.94,13.58.11.2.23.4.35.6.48.81.94,1.6,1.18,2.36.05.17-.07.35-.25.35-.26,0-.51.01-.77.01-1.95,0-3.9-.25-5.8-.75-1.58-.41-3.1-.99-4.54-1.72-.03-.02-.06-.04-.09-.07,0,0-.01-.02-.02-.03,0,0,0-.01-.01-.02,0,0,0-.02-.01-.02,0,0,0,0,0,0,0-.01,0-.02,0-.03,0-.02,0-.05,0-.07,0-.1.01-.2.02-.31,0-.03,0-.07,0-.1,0-.04,0-.09,0-.14h0c0-.06,0-.12,0-.18,0-.15,0-.29,0-.44,0,0,0,0,0,0,0-.05,0-.1,0-.15,0-.02,0-.03,0-.05,0-.12-.01-.23-.02-.35,0-.12-.02-.23-.03-.35,0,0,0-.02,0-.03,0-.07-.01-.14-.02-.21-.01-.13-.03-.25-.05-.38-.02-.12-.04-.24-.06-.36-.01-.08-.03-.16-.04-.24-.01-.06-.02-.13-.04-.19-.01-.06-.02-.11-.03-.17-.02-.12-.05-.24-.08-.36-.01-.06-.03-.11-.04-.17,0,0,0,0,0-.01-.03-.14-.07-.27-.1-.41-.02-.06-.03-.13-.05-.19-.04-.14-.07-.28-.11-.41-.02-.07-.04-.13-.06-.2-.04-.13-.08-.27-.12-.4-.02-.05-.03-.11-.05-.16,0-.01,0-.02-.01-.04-.02-.07-.04-.14-.07-.22-.03-.08-.05-.17-.08-.25-.02-.06-.04-.13-.06-.2,0-.03-.02-.05-.02-.07-.02-.07-.04-.13-.06-.19-.03-.08-.05-.15-.08-.23-.04-.12-.08-.23-.12-.35-.04-.12-.08-.23-.12-.35-.03-.08-.05-.15-.08-.23-.03-.08-.05-.15-.08-.23-.2-.58-.4-1.19-.59-1.77-1.23-3.87-1.65-7.26-1.27-10.35.43-3.47,2.09-6.7,4.55-8.86,1.47-1.28,3.53-2.08,5.53-2.13.07,0,.14,0,.2,0,1.98,0,3.92.73,5.31,2.01,1.39,1.28,2.26,3.04,3.18,4.91.14.28.29.58.43.87,0,0,0,.01,0,.02.09.17-.15.32-.27.17Z"/>
  <path class="cls-1" d="M27.22,27.47v.23s-.01,0-.02-.01c0,0,0,0,0,0h0s-.01-.04-.01-.06c0-.01,0-.03,0-.04,0-.03,0-.05.02-.08,0,0,0-.01,0-.02h0s0-.01,0-.02Z"/>
  <path d="M20.17,20.67c-.74.14-1.46-.31-1.6-1.02,0-.02,0-.03,0-.05l-1.45-.61c-.21-.09-.3-.32-.22-.53.09-.21.32-.3.53-.22l1.28.54s.05-.08.08-.12l-.62-1.03c-.12-.19-.05-.44.14-.56.19-.12.44-.05.56.14l.59.97c.06-.02.13-.04.19-.05.74-.14,1.45.32,1.6,1.02s-.33,1.38-1.07,1.52Z"/>
  <path d="M37.57,27.85c-.95-.7-2.15-.94-3.21-1.46-1.42-.68-2.57-1.83-3.5-3.1-.07-.1-.15-.2-.27-.22-.08-.01-.16.02-.23.04-.42.13-.88-.02-1.23-.28-.35-.26-.61-.62-.86-.97-.36-.51-.72-1.01-1.08-1.51-.1-.14-.2-.28-.35-.37-.08-.05-.18-.08-.28-.07-.09,0-.18.03-.22.11-.05.09-.09.19-.11.29,0,.03,0,.05-.01.08,0-.03,0-.05.01-.08.02-.11.06-.2.11-.29.05-.08.13-.11.22-.11.1,0,.19.02.28.07.15.09.25.23.35.37.36.5.72,1.01,1.08,1.51.25.35.51.71.86.97.35.26.81.41,1.23.28.08-.02.15-.06.23-.04.12.02.2.12.27.22.93,1.27,2.08,2.42,3.5,3.1,1.06.51,2.26.75,3.21,1.46.34.25.67.63.69,1.04-.02-.41-.34-.79-.69-1.04ZM27.22,27.46s-.01.03-.02.04c0,.03-.01.05-.02.08,0-.03.01-.06.02-.1h0s0-.01,0-.02c.14-.24.24-.51.3-.78-.06.27-.16.53-.3.77ZM13.41,43.62c0,.1,0,.2-.02.31,0,.03,0,.05,0,.07,0-.02,0-.05,0-.07,0-.1.01-.2.01-.31ZM13.38,42.22c0,.12.02.23.02.35,0-.12-.01-.23-.02-.35Z"/>
  <path class="cls-2" d="M38.26,28.9s0,.05,0,.08c0,.01,0,.03,0,.04,0,.02,0,.05-.01.07-.09.46-.57.74-1.01.89-.77.26-1.59.31-2.4.31-1.39,0-2.8-.17-4.12-.59-1.26-.4-2.45-1.03-3.43-1.91-.03-.03-.06-.07-.07-.11,0-.02-.01-.04-.01-.06,0-.01,0-.03,0-.04,0-.03,0-.05.02-.08,0-.01.01-.03.02-.04.14-.24.23-.5.3-.77.01-.06.03-.13.04-.19,0-.03.01-.07.02-.1,0-.07.02-.14.02-.21.02-.2.01-.41,0-.61,0-.02,0-.03,0-.05,0-.04,0-.08-.01-.12,0-.03,0-.05,0-.08,0-.03,0-.06-.01-.09,0-.04-.01-.08-.02-.12-.04-.29-.11-.57-.19-.84-.33-1.11-.88-2.17-1.1-3.31-.02-.08-.03-.17-.04-.26,0-.02,0-.03,0-.05,0-.03,0-.07,0-.1,0-.03,0-.05,0-.08,0-.01,0-.03,0-.04,0-.01,0-.02,0-.03,0-.03,0-.06.01-.08.02-.11.06-.2.11-.29.05-.08.13-.11.22-.11.1,0,.19.02.28.07.15.09.25.23.35.37.36.5.72,1.01,1.08,1.51.25.35.51.71.86.97.35.26.81.41,1.23.28.08-.02.15-.06.23-.04.12.02.2.12.27.22.93,1.27,2.08,2.42,3.5,3.1,1.06.51,2.26.75,3.21,1.46.35.26.67.63.69,1.04Z"/>
  <circle cx="29.07" cy="24.52" r=".59"/>
</svg>