<?xml version="1.0" encoding="UTF-8"?>
<svg id="Capa_1" data-name="Capa 1" xmlns="http://www.w3.org/2000/svg" xmlns:xlink="http://www.w3.org/1999/xlink" viewBox="0 0 1185.2 1185.2">
  <defs>
    <style>
      .cls-1 {
        fill: none;
      }

      .cls-2 {
        fill: #f28f31;
      }

      .cls-3 {
        clip-path: url(#clippath-1);
      }

      .cls-4 {
        fill: #fff;
      }

      .cls-5 {
        fill: #262626;
      }

      .cls-6 {
        fill: #d36c18;
      }

      .cls-7 {
        fill: #eee5e9;
      }

      .cls-8 {
        clip-path: url(#clippath);
      }
    </style>
    <clipPath id="clippath">
      <circle class="cls-1" cx="1307.77" cy="-754.29" r="580.09"/>
    </clipPath>
    <clipPath id="clippath-1">
      <circle class="cls-1" cx="592.6" cy="592.6" r="580.5"/>
    </clipPath>
  </defs>
  <g class="cls-8">
    <g>
      <polygon class="cls-4" points="811.81 -631.33 731.01 -573.79 641.13 -573.7 564.31 -462.11 524.36 -384.89 495.84 -310.85 476.86 -240.43 467.31 -164.02 475.22 -78.53 488.85 -36.27 525.03 23.02 579.47 86.42 651.94 145.03 743.13 190.96 829.62 212.77 860.37 216.13 909.38 218.38 955.57 219.19 994.7 220.34 1061.99 230.01 1098.57 234.95 1124.26 243.77 1147.94 259.8 1155.72 271.77 1172.93 242.55 1194.57 239.91 1217.51 246.27 1230.32 226.26 1255.42 254.26 1272.95 225.02 1313.76 175.56 1403.98 142.95 1495.17 77.42 1540.03 15.89 1581.75 18.46 1634.99 -24.02 1676.72 -72.34 1708.73 -126.22 1730.49 -184.55 1740 -242.55 1740.03 -296.2 1700.9 -306.12 1680.48 -332.58 1654.53 -368.26 1637.66 -437.04 1633.77 -531.77 1644.55 -493.99 1657.82 -427.48 1671.81 -386.95 1688.87 -355.83 1700.9 -306.12 1706.36 -271.01 1706.06 -242.89 1682.7 -237.18 1657.5 -252.58 1641.09 -297.81 1629.14 -349.88 1608.59 -400.52 1584.06 -440.17 1563.35 -479.46 1513 -526.69 1481.49 -552.74 1467.94 -577.94 1461.34 -591.75 1491.36 -645.26 1491.99 -687.8 1481.5 -734.87 1462.2 -765.01 1437.1 -785.37 1406.17 -797.14 1415.64 -872.99 1396.5 -989.92 1366.59 -1036.69 1321.6 -1080.76 1283.98 -1103.1 1227.86 -1121.64 1160.56 -1124.62 1112.08 -1115.2 1051.03 -1076.46 982.69 -1006.71 948.37 -944.87 914.68 -878.67 887.92 -821.51 811.81 -631.33"/>
      <polygon class="cls-6" points="1169.68 282.08 1200.21 307.06 1230.45 329.16 1248.31 354.58 1273.69 384.94 1301.01 416.45 1311.62 440.9 1333.68 483.26 1350.92 528.66 1348.61 558.95 1318.54 584.59 1274.85 627.36 1247.85 653.09 1242.83 685.42 1262.84 698.72 1304.49 647.8 1363.1 574.33 1385.83 576.18 1418.18 622.17 1446.02 667.16 1485.87 672.32 1505.9 654.76 1503.56 626.39 1471.27 591.73 1441.93 542.73 1440.49 527.08 1485.72 540.58 1550.11 560.12 1595.42 569.03 1617.2 563.76 1627.2 546.38 1600.54 540.67 1551.92 535.93 1504.17 523.52 1471.12 511.85 1432.09 488.16 1381.99 448.45 1348.43 411.08 1324.77 375.74 1295.34 314.48 1275.36 253.89 1259.21 247.94 1244.66 249.5 1234.18 232 1217.51 246.27 1197.24 247.51 1180.21 237.48 1164.21 250.18 1159.79 270.69 1169.68 282.08"/>
      <g>
        <path d="M1155.72,279.88c-3.16,0-6.16-1.85-7.47-4.94-5.28-12.44-18.28-21.62-40.9-28.89-53.67-17.25-112.14-18.15-168.68-19.02-28.03-.43-57.01-.88-85.07-3.3-152.56-13.21-286.6-103.14-367.74-246.72-2.2-3.9-.83-8.85,3.07-11.05,3.92-2.21,8.85-.83,11.05,3.07,78.47,138.85,207.87,225.8,355.02,238.54,27.49,2.38,56.17,2.82,83.92,3.25,57.72.88,117.42,1.8,173.39,19.8,17.26,5.55,41.32,15.53,50.86,37.99,1.75,4.12-.17,8.88-4.29,10.63-1.04.44-2.11.65-3.17.65Z"/>
        <path d="M1258.12,702.88c-1.59,0-3.24-.16-4.97-.5-12.2-2.41-21.15-13.95-21.31-27.43-.23-20.59,15.07-33.96,26.26-43.73l68.74-60.06c6.03-5.27,12.27-10.72,15.29-17.4,5.08-11.22,1.07-25.28-4.02-38.81-34.12-90.67-100.57-174.69-187.12-236.59-3.64-2.61-4.49-7.67-1.88-11.31,2.6-3.64,7.66-4.49,11.31-1.88,89.14,63.75,157.63,150.43,192.87,244.08,6.01,15.98,11.15,34.57,3.62,51.21-4.48,9.89-12.75,17.12-19.4,22.93l-68.74,60.06c-11.82,10.32-20.84,19.18-20.71,31.33.06,4.89,2.96,10.66,8.23,11.7,5.32,1.04,9.38-2.7,15.51-10.44l82.53-104.3c4.84-6.12,12.05-9.48,19.89-9.27,7.8.23,14.84,4.02,19.31,10.41l63.01,89.94c.08.09,5.31,6.18,21.7,3.09,7.14-1.35,14.95-7.48,17.36-9.73,10.78-10.18-8.43-33.09-14.57-39.87-20.93-23.1-37.78-49.4-50.05-78.18-2.37-5.55-1.17-11.91,3.05-16.21,4.24-4.31,10.62-5.63,16.23-3.35,40.02,16.24,81.66,29.38,123.72,39.05,17.6,4.04,31.61,4.53,41.63,1.45,2.76-.85,3.03-3.18,3.01-4.14-.02-1.15-.43-3.17-3-3.87-7.42-2.03-16.12-2.39-24.53-2.73-136.36-5.64-263.13-104.3-301.94-234.61l-.66-2.23c-6.4-21.53-14.37-48.33-27.43-64.35-2.83-3.47-2.31-8.58,1.16-11.41,3.48-2.83,8.58-2.31,11.41,1.16,15.11,18.54,23.58,47.06,30.4,69.98l.66,2.22c36.89,123.88,157.4,217.67,286.55,223.02,9.39.39,19.46.8,28.64,3.31,8.79,2.4,14.8,10.14,14.94,19.26.14,9.2-5.67,17.2-14.46,19.9-12.97,3.98-29.35,3.61-50.03-1.14-41.84-9.61-83.24-22.59-123.12-38.59,11.44,25.91,26.84,49.64,45.82,70.57,23.42,25.84,28.41,48.65,13.67,62.57-1.23,1.16-12.38,11.4-25.47,13.87-27.02,5.11-37-8.27-38.05-9.81l-62.95-89.85c-1.51-2.15-3.88-3.43-6.51-3.5-2.86-.06-5.07,1.06-6.7,3.12l-82.53,104.3c-4.8,6.06-13.28,16.79-26.41,16.79Z"/>
      </g>
    </g>
  </g>
  <g>
    <g>
      <circle class="cls-7" cx="592.6" cy="592.6" r="576.77"/>
      <path d="M592.6,1177.28C270.21,1177.28,7.92,914.99,7.92,592.6S270.21,7.92,592.6,7.92s584.68,262.29,584.68,584.68-262.29,584.69-584.68,584.69ZM592.6,23.75C278.93,23.75,23.75,278.93,23.75,592.6s255.19,568.86,568.86,568.86,568.85-255.19,568.85-568.86S906.27,23.75,592.6,23.75Z"/>
    </g>
    <g class="cls-3">
      <g>
        <g>
          <polygon class="cls-2" points="234.7 589.15 298.7 524.74 317.81 437.14 332.2 502.74 341.08 583.99 348.65 660.01 339.77 742.97 329.33 786.67 302.29 759.43 255.15 658.71 228.22 597.45 234.7 589.15"/>
          <polygon class="cls-2" points="374.63 358.66 419.1 417.81 451.39 413.32 491.7 387.74 462.18 480.88 442.72 554.5 424.39 627.23 392.93 673.61 385.45 636.98 382.94 555.86 384.66 455.85 374.63 358.66"/>
          <polygon class="cls-6" points="300.25 953.94 289.6 1023.73 288.93 1082.89 270.8 1146.98 282.57 1204.24 317.88 1221.78 353.45 1181.26 372.44 1078.3 378.53 953.73 407.48 823.2 447.75 714.2 509.49 563.44 535.07 465.54 535.6 377.39 525.99 360.27 508.82 364.74 483.31 413.85 459.55 489.23 440.41 563.45 420.91 641.1 390.75 672.53 384.23 612.04 389.6 502.98 379.59 407.44 371.1 350.11 346.38 300.73 330.22 283.33 315.04 364.25 332.2 502.74 341.8 590.52 345.65 679.66 338.43 757.28 329.33 786.67 302.29 759.43 272.64 683.77 249.7 627.89 219.7 598.59 204.07 618.65 220.2 674.54 277.23 799.62 289.1 888.53 300.25 953.94"/>
          <path class="cls-5" d="M314.33,1229.3c-1.32,0-2.64-.05-3.97-.15-21.1-1.59-38.65-15.69-44.72-35.91-2.9-9.69-4.53-19.77-4.83-29.95-.69-24.46,4.88-47.87,10.28-70.52,1.81-7.6,3.62-15.19,5.18-22.8,11.39-55.54,6.34-170.52,6.29-171.68-4.32-69.93-17.07-97.19-33.22-131.71-3.99-8.52-8.1-17.32-12.39-27.33-4.65-10.83-10.41-21.66-16.53-33.13-15.99-30-32.52-61-28.98-94.13.32-8.07,2.64-21.52,14.02-25.49,2.08-.73,5.14-1.34,8.73-.65,58.54-35.21,84.27-73,83.41-122.35-1.09-62.72,3.67-109.97,11.71-165.81.39-4.13.83-8.25,1.32-12.36,1.14-9.61,8.35-17.11,17.92-18.67.2-.03.4-.06.61-.09l1.14-.6,3.37.45c2.96.21,5.81,1.03,8.38,2.37,6.49,3.25,9.9,8.95,12.17,12.74.85,1.42,1.65,2.76,2.39,3.66,19.41,23.31,31.42,51.9,41.08,74.87,3.85,9.15,7.17,17.05,10.31,23.1,1.78,3.42,3.19,6.48,4.46,9.23,4.44,9.64,4.9,10.64,13.95,13.35,5.49,1.63,11.7.37,16.65-3.38,14-10.62,23.17-18.8,32.86-27.46,6.94-6.2,14.07-12.57,23.19-20.02,1.96-2.14,4.21-3.93,6.66-5.35l1.59-.86c4.56-2.26,9.72-3.27,14.99-2.81,7.05.12,13.91,2.53,18.29,8.83,2.55,2.72,4.56,5.94,5.88,9.53,2.55,4.32,2.73,7.47,2.82,13.27l.02,1.15c2.01,115.91-39.58,218.76-79.8,318.22-33.96,83.98-69.08,170.82-77.88,265.39-2.04,21.9-2.78,45.22-3.49,67.76-1.86,58.62-3.78,119.23-27.89,170.14-8.54,18.02-26.31,29.16-46,29.16ZM218.62,617.25c-1.57,24.02,11.89,49.26,26.1,75.92,6.11,11.47,12.44,23.33,17.53,35.23,4.11,9.6,8.14,18.2,12.03,26.51,16.7,35.69,31.12,66.52,35.77,141.91.24,5.08,5.27,119.79-6.81,178.68-1.62,7.9-3.49,15.77-5.37,23.65-5.21,21.87-10.13,42.52-9.54,63.34.22,7.65,1.49,15.55,3.68,22.82,4.22,14.08,16.69,16.09,20.42,16.37,7.81.58,17.93-2.61,23.01-13.34,21.66-45.73,23.49-103.43,25.26-159.22.73-22.96,1.48-46.7,3.6-69.44,9.17-98.59,45.06-187.33,79.77-273.16,40.99-101.37,79.71-197.11,77.79-307.42l-.02-1.18c0-.28,0-.54,0-.79-.18-.37-.34-.75-.48-1.14-.45-.69-.93-1.46-1.47-2.35l-.24.05c-.25.2-.5.4-.75.6-26.99,41.81-39.96,93.82-52.51,144.13-2.82,11.28-5.62,22.52-8.57,33.63-10.6,39.95-23.72,79.71-39.01,118.17-4.4,11.1-15.66,17.49-27.54,15.52-11.88-1.98-20.58-11.74-21.16-23.74-1.39-29.09.69-58.55,2.7-87.05,1.34-19.07,2.74-38.79,3.03-57.93,1.08-70.21-12.7-140.93-39.97-205.92-4.66,65.39,3.33,133.26,11.1,199.11,10.43,88.46,21.21,179.93,1.59,266.44-2.53,11.14-9.86,18.48-19.62,19.65-15.51,1.84-29.9-12.33-36.81-26.27-7.91-15.92-14.38-33.49-21.23-52.09-13.26-36-26.94-73.11-52.05-100.73-.07,0-.13.02-.2.02ZM241.42,601.21c27.34,31.36,42.08,71.39,55.29,107.23,6.59,17.88,12.81,34.77,20.05,49.36,1.77,3.56,3.98,6.3,5.93,8.18,17.19-80.49,7.33-164.11-3.09-252.54-.2-1.7-.4-3.4-.6-5.11-10.88,35.21-36.3,65.52-77.58,92.88ZM395.57,418.13c5.66,32.82,8.3,66.12,7.79,99.32-.31,19.9-1.73,40-3.1,59.45-1.7,24.03-3.45,48.77-3.02,72.83,13.16-34.23,24.57-69.4,33.95-104.73,2.91-10.98,5.68-22.08,8.46-33.23,7.73-31,15.62-62.63,26.86-92.72-2.16,1.7-4.42,3.44-6.8,5.25-11.93,9.04-27.33,11.95-41.16,7.82-11.73-3.51-18.44-8.39-22.98-13.98Z"/>
        </g>
        <g>
          <polygon class="cls-2" points="953.36 589.15 889.36 524.74 870.25 437.14 855.86 502.74 846.98 583.99 839.41 660.01 848.29 742.97 858.73 786.67 885.76 759.43 932.91 658.71 959.84 597.45 953.36 589.15"/>
          <polygon class="cls-2" points="813.43 358.66 768.96 417.81 736.67 413.32 696.36 387.74 725.88 480.88 745.34 554.5 763.67 627.23 795.13 673.61 802.61 636.98 805.12 555.86 803.4 455.85 813.43 358.66"/>
          <polygon class="cls-6" points="887.81 953.94 898.46 1023.73 899.13 1082.89 917.26 1146.98 905.49 1204.24 870.18 1221.78 834.61 1181.26 815.62 1078.3 809.53 953.73 780.58 823.2 740.31 714.2 678.57 563.44 652.99 465.54 652.46 377.39 662.07 360.27 679.24 364.74 704.75 413.85 728.51 489.23 747.65 563.45 767.15 641.1 797.31 672.53 803.83 612.04 798.46 502.98 808.47 407.44 816.96 350.11 841.68 300.73 857.84 283.33 873.02 364.25 855.86 502.74 846.26 590.52 842.41 679.66 849.63 757.28 858.73 786.67 885.76 759.43 915.42 683.77 938.36 627.89 968.36 598.59 983.99 618.65 967.86 674.54 910.83 799.62 898.96 888.53 887.81 953.94"/>
          <path class="cls-5" d="M873.73,1229.3c-19.69,0-37.47-11.13-46-29.16-24.11-50.91-26.03-111.52-27.89-170.14-.71-22.55-1.45-45.86-3.49-67.76-8.8-94.57-43.91-181.4-77.88-265.39-40.22-99.46-81.81-202.31-79.8-318.22l.02-1.16c.09-5.8.27-8.95,2.82-13.27,1.32-3.59,3.34-6.82,5.9-9.54,4.38-6.29,11.24-8.7,18.28-8.82,5.3-.46,10.43.55,15,2.82l1.57.84c2.46,1.42,4.72,3.23,6.69,5.38,9.11,7.44,16.24,13.81,23.16,19.99,9.7,8.67,18.86,16.85,32.88,27.48,4.94,3.75,11.16,5.01,16.65,3.37,9.06-2.71,9.52-3.71,13.95-13.34,1.27-2.76,2.68-5.82,4.46-9.24,3.15-6.05,6.46-13.94,10.3-23.08,9.65-22.98,21.67-51.59,41.09-74.9.75-.89,1.55-2.23,2.39-3.65,2.25-3.76,5.63-9.43,12.06-12.69,2.6-1.38,5.49-2.22,8.5-2.43l3.36-.45,1.15.6c.19.03.39.06.58.09,9.57,1.56,16.78,9.06,17.94,18.66.5,4.16.94,8.33,1.33,12.5,8.03,55.78,12.79,103.02,11.7,165.68-.85,49.35,24.88,87.14,83.41,122.35,3.59-.68,6.64-.08,8.73.65,11.39,3.97,13.71,17.42,14.03,25.49,3.54,33.13-13,64.14-28.98,94.14-6.11,11.47-11.88,22.3-16.52,33.13-4.29,10.01-8.4,18.81-12.38,27.32-16.15,34.52-28.91,61.78-33.24,131.95-.04.93-5.08,115.92,6.3,171.45,1.56,7.62,3.37,15.21,5.19,22.81,5.39,22.64,10.97,46.05,10.27,70.5-.28,10.14-1.91,20.22-4.82,29.95-6.07,20.23-23.63,34.33-44.73,35.92-1.32.1-2.65.15-3.97.15ZM666.23,377.14c0,.25,0,.51,0,.79l-.02,1.19c-1.92,110.3,36.8,206.04,77.79,307.41,34.71,85.82,70.6,174.57,79.77,273.16,2.12,22.74,2.87,46.48,3.6,69.44,1.77,55.8,3.6,113.5,25.26,159.22,5.08,10.73,15.21,13.92,23.01,13.34,3.72-.28,16.2-2.29,20.42-16.37,2.19-7.3,3.46-15.2,3.68-22.82.59-20.82-4.33-41.47-9.54-63.34-1.88-7.88-3.75-15.77-5.37-23.67-12.07-58.89-7.05-173.6-6.82-178.45,4.67-75.62,19.09-106.45,35.8-142.15,3.89-8.31,7.91-16.9,12.02-26.5,5.1-11.9,11.42-23.76,17.53-35.23,14.21-26.66,27.66-51.9,26.1-75.92-.07,0-.13-.02-.21-.02-25.11,27.63-38.78,64.74-52.05,100.73-6.85,18.6-13.32,36.16-21.23,52.09-6.92,13.94-21.42,28.11-36.81,26.27-9.76-1.16-17.09-8.51-19.62-19.65-19.62-86.51-8.84-177.98,1.59-266.44,7.76-65.86,15.77-133.73,11.11-199.12-27.28,64.99-41.06,135.71-39.98,205.93.3,19.14,1.69,38.86,3.04,57.94,2.01,28.49,4.09,57.95,2.7,87.04-.58,12-9.28,21.76-21.15,23.74-11.83,1.96-23.14-4.41-27.56-15.52-15.29-38.48-28.42-78.24-39.01-118.17-2.95-11.12-5.75-22.37-8.58-33.66-12.55-50.29-25.53-102.29-52.49-144.08-.26-.2-.5-.41-.77-.61-.07-.02-.15-.03-.23-.05-.56.93-1.06,1.72-1.49,2.38-.14.38-.3.75-.47,1.11ZM869.06,508.34c-.2,1.7-.4,3.41-.61,5.11-10.43,88.43-20.28,172.05-3.09,252.54,1.95-1.88,4.16-4.62,5.93-8.19,7.24-14.59,13.47-31.48,20.05-49.36,13.2-35.84,27.95-75.87,55.29-107.23-41.28-27.36-66.7-57.66-77.57-92.88ZM721.54,419.04c11.23,30.09,19.12,61.7,26.85,92.69,2.79,11.16,5.57,22.28,8.48,33.27,9.37,35.32,20.77,70.51,33.95,104.75.43-24.06-1.32-48.8-3.02-72.84-1.38-19.45-2.8-39.56-3.11-59.46-.51-33.2,2.13-66.5,7.79-99.31-4.54,5.59-11.25,10.47-22.98,13.97-13.86,4.14-29.24,1.22-41.16-7.82-2.39-1.81-4.65-3.56-6.8-5.26Z"/>
        </g>
      </g>
    </g>
    <path class="cls-5" d="M592.6,1185.2C265.84,1185.2,0,919.36,0,592.6S265.84,0,592.6,0s592.6,265.84,592.6,592.6-265.84,592.6-592.6,592.6ZM592.6,31.66C283.3,31.66,31.66,283.3,31.66,592.6s251.64,560.94,560.94,560.94,560.94-251.64,560.94-560.94S901.9,31.66,592.6,31.66Z"/>
  </g>
</svg>