<?xml version="1.0" encoding="UTF-8"?>
<svg id="Capa_1" data-name="Capa 1" xmlns="http://www.w3.org/2000/svg" xmlns:xlink="http://www.w3.org/1999/xlink" viewBox="0 0 1185.2 1185.22">
  <defs>
    <style>
      .cls-1 {
        fill: none;
      }

      .cls-2 {
        fill: #f28f31;
      }

      .cls-3 {
        fill: #1dadb5;
      }

      .cls-4 {
        fill: #fff;
      }

      .cls-5 {
        fill: #262626;
      }

      .cls-6 {
        fill: #eee5e9;
      }

      .cls-7 {
        clip-path: url(#clippath);
      }
    </style>
    <clipPath id="clippath">
      <circle class="cls-1" cx="1994.96" cy="592.59" r="580.09"/>
    </clipPath>
  </defs>
  <g>
    <path class="cls-3" d="M711.56,505.81l-7.92-10.02-4.26-5.99c-6.66-9.34-20.54-28.77-42.77-28.77h-.02c-21.39.03-38.88,17.94-39.82,40.78-1.06,25.72,8.73,51.05,18.19,75.53,12.09,31.29,23.51,60.85,10.37,86.07-9.88,18.98-31.92,31.78-67.39,39.16-33.37,6.94-67.73,5.31-96.72-4.58-27.03-9.25-48.82-25.46-63.73-47.26-4.33-6.33-12.82-8.29-19.6-4.69-.65.35-1.26.73-1.84,1.16-4.04,2.94-6.27,7.6-6.27,12.35,0,2.93.85,5.88,2.64,8.5,18.6,27.21,45.61,47.37,78.96,58.76,10.48,3.57,21.52,6.25,32.91,7.98v.07c-10.98,115.56,14.78,234.63,72.54,335.29,2.83,4.93,5.76,9.91,8.6,14.71,11.84,20.07,23.25,39.43,29.17,58.24,1.33,4.21-1.68,8.52-6.09,8.67-6.34.23-12.7.34-19.05.34-48.09,0-96.24-6.23-143.11-18.51-39.03-10.21-76.63-24.48-112.09-42.54-.83-.42-1.55-1.02-2.12-1.72-.18-.24-.36-.48-.51-.74-.11-.17-.2-.34-.3-.53-.09-.2-.17-.4-.25-.6-.01-.04-.02-.06-.04-.1-.09-.28-.17-.56-.22-.85-.13-.58-.19-1.19-.15-1.81.16-2.52.28-5.03.38-7.55.03-.83.06-1.67.08-2.51.03-1.11.05-2.23.07-3.34v-.05c.02-1.47.03-2.93.03-4.4,0-3.61-.07-7.2-.19-10.79,0-.08,0-.15-.01-.23-.04-1.21-.09-2.43-.15-3.65-.01-.4-.04-.78-.06-1.15-.15-2.85-.33-5.71-.55-8.55-.22-2.84-.48-5.68-.78-8.52-.01-.21-.04-.44-.06-.65-.18-1.76-.37-3.54-.6-5.3-.37-3.11-.78-6.21-1.23-9.3-.42-2.96-.89-5.94-1.39-8.9-.33-1.96-.68-3.92-1.03-5.88-.3-1.56-.59-3.11-.89-4.67-.27-1.41-.54-2.8-.84-4.2-.59-2.94-1.21-5.89-1.88-8.84-.31-1.41-.63-2.83-.96-4.25-.03-.1-.06-.22-.08-.33-.78-3.36-1.61-6.71-2.44-10.05-.4-1.59-.81-3.17-1.22-4.75-.9-3.42-1.81-6.84-2.77-10.23-.45-1.65-.92-3.32-1.4-4.99-.94-3.31-1.92-6.64-2.91-9.94-.4-1.33-.81-2.68-1.22-4.02-.1-.29-.19-.6-.27-.89-.54-1.77-1.08-3.55-1.64-5.31-.64-2.07-1.3-4.15-1.95-6.2-.51-1.6-1.03-3.22-1.55-4.82-.2-.62-.39-1.23-.59-1.85-.52-1.61-1.05-3.2-1.57-4.8-.62-1.91-1.25-3.81-1.89-5.72-.95-2.86-1.91-5.71-2.86-8.56-.95-2.84-1.92-5.69-2.89-8.54-.63-1.89-1.28-3.77-1.92-5.67-.65-1.89-1.28-3.77-1.93-5.66-4.9-14.41-9.97-29.31-14.57-43.75-30.44-95.66-40.67-179.24-31.32-255.51,10.51-85.69,51.5-165.47,112.47-218.89,36.18-31.69,87.24-51.38,136.56-52.67,1.68-.05,3.38-.07,5.06-.07,48.96,0,96.75,18.14,131.09,49.75,34.22,31.51,55.73,75.07,78.5,121.21,3.47,7.03,7.06,14.32,10.66,21.46.07.13.13.26.2.41,2.14,4.24-3.66,7.94-6.6,4.22Z"/>
    <path class="cls-3" d="M944.64,713.54c.02.63.02,1.27,0,1.92-.02.39-.06.79-.1,1.19-.06.59-.16,1.19-.27,1.79-2.3,11.44-13.99,18.31-25.05,22.01-19.01,6.36-39.32,7.63-59.36,7.56-34.42-.12-69.02-4.12-101.84-14.45-31.05-9.77-60.55-25.37-84.65-47.21-.89-.8-1.51-1.81-1.87-2.88h0c-.16-.5-.27-.99-.29-1.51-.04-.33-.05-.65-.03-.98.03-.65.15-1.31.39-1.93.12-.33.26-.65.43-.96,3.41-5.98,5.79-12.42,7.31-19.11.34-1.55.64-3.11.9-4.69.14-.83.27-1.68.38-2.51.23-1.7.41-3.39.54-5.1.38-4.98.37-10.05.04-15.13-.03-.39-.05-.79-.08-1.19-.08-.97-.16-1.93-.27-2.89-.06-.67-.13-1.35-.21-2.02-.08-.76-.17-1.5-.28-2.23-.13-1.01-.28-2.03-.44-3.04-1.11-7.03-2.75-14-4.75-20.7-8.2-27.53-21.8-53.46-27.07-81.68-.4-2.13-.73-4.29-.91-6.48-.04-.42-.08-.85-.11-1.28-.05-.82-.08-1.66-.08-2.49,0-.62.01-1.25.05-1.87.02-.33.03-.65.07-.98.01-.28.04-.56.08-.83.07-.68.17-1.36.29-2.03.49-2.6,1.45-4.95,2.8-7.22,1.13-1.95,3.25-2.69,5.47-2.81,2.39-.14,4.79.52,6.87,1.75,3.65,2.16,6.22,5.72,8.7,9.18,8.91,12.45,17.83,24.91,26.74,37.38,6.24,8.72,12.62,17.6,21.23,23.99,8.62,6.41,19.97,10.04,30.25,6.94,1.88-.57,3.8-1.36,5.75-1.1,2.9.4,4.93,2.98,6.66,5.34,23.05,31.29,51.38,59.69,86.41,76.53,26.23,12.61,55.91,18.63,79.33,35.93,8.53,6.32,16.54,15.6,16.97,25.79Z"/>
    <path class="cls-6" d="M1154.74,592.62c0,291.78-222.3,531.63-506.78,559.43-5.44-34.14-26.96-66.13-44.71-97.06-54.58-95.11-78.92-207.26-68.71-316.45l.13-1.31c.81.03,1.63.03,2.44.03,15.58,0,31.43-1.62,47.04-4.86,25.21-5.24,45.35-13.18,60.72-24.02,2.59-1.84,6.11-1.61,8.42.6,49.81,47.76,130.89,69.57,203.79,69.57,19.35,0,38.1-1.53,55.56-4.53,28.09-4.82,59.08-22.96,62.43-54.09,2.93-26.98-17.67-51.39-41.21-64.87-23.54-13.49-50.61-19.61-74.76-32-53.46-27.39-86.92-81.94-113.94-135.59-27.03-53.65-51.54-110.7-95.74-151.38-40.74-37.51-96.31-57.79-151.71-57.79-1.95,0-3.9.03-5.86.07-55.86,1.46-113.66,23.27-155.84,60.22-68.86,60.33-111.54,147.71-122.63,238.09-11.06,90.17,4.99,181.89,32.53,268.45,23.77,74.78,56.56,150.81,54.76,227.96C138.66,974.46,30.46,796.17,30.46,592.62,30.46,282.14,282.15,30.46,592.6,30.46s562.14,251.68,562.14,562.16Z"/>
    <path class="cls-5" d="M1138.62,361.94c-29.83-70.58-72.56-133.95-126.98-188.36-54.41-54.42-117.78-97.15-188.36-126.99C750.2,15.68,672.59,0,592.6,0s-157.59,15.68-230.67,46.59c-70.58,29.84-133.95,72.57-188.36,126.99-54.42,54.41-97.15,117.78-126.99,188.36C15.67,435.01,0,512.62,0,592.62s15.67,157.59,46.58,230.67c29.84,70.58,72.57,133.95,126.99,188.36,54.41,54.42,117.78,97.13,188.36,126.99,73.08,30.91,150.69,46.58,230.67,46.58s157.6-15.67,230.68-46.58c70.58-29.86,133.95-72.57,188.36-126.99,54.42-54.41,97.15-117.78,126.98-188.36,30.92-73.08,46.58-150.69,46.58-230.67s-15.66-157.61-46.58-230.68ZM608.51,1151.77c-6.34.23-12.7.34-19.05.34-48.09,0-96.24-6.23-143.11-18.51-39.03-10.21-76.63-24.48-112.09-42.54-.83-.42-1.55-1.02-2.12-1.72-.2-.24-.37-.48-.51-.74-.11-.17-.2-.34-.3-.53-.09-.2-.17-.4-.25-.6-.01-.04-.02-.06-.04-.1-.09-.28-.17-.56-.22-.85-.13-.58-.19-1.19-.15-1.81.16-2.52.28-5.03.38-7.55.03-.83.06-1.67.08-2.51.03-1.11.05-2.23.07-3.34v-.05c.02-1.47.03-2.93.03-4.4,0-3.61-.07-7.2-.19-10.79,0-.08,0-.15-.01-.23-.04-1.21-.09-2.43-.15-3.65-.01-.4-.04-.78-.06-1.15-.15-2.85-.33-5.71-.55-8.55-.22-2.84-.48-5.68-.78-8.52-.01-.21-.04-.44-.06-.65-.19-1.78-.39-3.54-.6-5.3-.37-3.11-.78-6.21-1.23-9.3-.42-2.96-.89-5.94-1.39-8.9-.33-1.96-.68-3.92-1.03-5.88-.3-1.56-.59-3.11-.89-4.67-.27-1.41-.54-2.8-.84-4.2-.59-2.94-1.21-5.89-1.88-8.84-.31-1.41-.63-2.83-.96-4.25-.03-.1-.06-.22-.08-.33-.78-3.36-1.61-6.71-2.44-10.05-.4-1.59-.81-3.17-1.22-4.75-.9-3.42-1.81-6.84-2.77-10.23-.45-1.65-.92-3.32-1.4-4.99-.94-3.31-1.92-6.64-2.91-9.94-.4-1.33-.81-2.68-1.22-4.02-.1-.29-.19-.6-.27-.89-.54-1.77-1.08-3.55-1.64-5.31-.64-2.07-1.3-4.15-1.95-6.2-.51-1.6-1.03-3.22-1.55-4.82-.2-.62-.39-1.23-.59-1.85-.52-1.61-1.05-3.2-1.57-4.8-.62-1.91-1.25-3.81-1.89-5.72-.95-2.86-1.91-5.71-2.86-8.56-.95-2.84-1.92-5.69-2.89-8.54-.63-1.89-1.28-3.77-1.92-5.67-.65-1.89-1.28-3.77-1.93-5.66-4.9-14.41-9.97-29.31-14.57-43.75-30.44-95.66-40.67-179.24-31.32-255.51,10.51-85.69,51.5-165.47,112.47-218.89,36.18-31.69,87.24-51.38,136.56-52.67,1.68-.05,3.38-.07,5.06-.07,48.96,0,96.75,18.14,131.09,49.75,34.22,31.51,55.73,75.07,78.5,121.21,3.47,7.03,7.06,14.32,10.66,21.46.07.13.13.26.2.41,2.14,4.24-3.66,7.94-6.6,4.22l-7.92-10.02-4.26-5.99c-6.66-9.34-20.54-28.77-42.77-28.77h-.02c-21.39.03-38.88,17.94-39.82,40.78-1.06,25.72,8.73,51.05,18.19,75.53,12.09,31.29,23.51,60.85,10.37,86.07-9.88,18.98-31.92,31.78-67.39,39.16-33.37,6.94-67.73,5.31-96.72-4.58-27.03-9.25-48.82-25.46-63.73-47.26-4.33-6.33-12.82-8.29-19.6-4.69-.65.35-1.26.73-1.84,1.16-4.04,2.94-6.27,7.6-6.27,12.35,0,2.93.85,5.88,2.64,8.5,18.6,27.21,45.61,47.37,78.96,58.76,10.48,3.57,21.52,6.25,32.91,7.98v.07c-10.98,115.56,14.78,234.63,72.54,335.29,2.83,4.93,5.76,9.91,8.6,14.71,11.84,20.07,23.25,39.43,29.17,58.24,1.33,4.21-1.68,8.52-6.09,8.67ZM671.5,683.46c-.16-.49-.27-.98-.29-1.5-.04-.33-.05-.65-.03-.98.03-.65.15-1.31.39-1.93.12-.33.26-.65.43-.96,3.41-5.98,5.79-12.42,7.31-19.11.34-1.55.64-3.11.9-4.69.14-.83.27-1.68.38-2.51.23-1.7.41-3.39.54-5.1.38-4.98.37-10.05.04-15.13-.03-.39-.05-.79-.08-1.19-.08-.97-.16-1.93-.27-2.89-.06-.67-.13-1.35-.21-2.02-.08-.76-.17-1.5-.28-2.23-.13-1.01-.28-2.03-.44-3.04-1.11-7.03-2.75-14-4.75-20.7-8.2-27.53-21.8-53.46-27.07-81.68-.4-2.13-.73-4.29-.91-6.48-.04-.42-.08-.85-.11-1.28-.05-.82-.08-1.66-.08-2.49,0-.62.01-1.25.05-1.87.02-.33.03-.65.07-.98.01-.28.04-.56.08-.83.07-.68.17-1.36.29-2.03.49-2.6,1.45-4.95,2.8-7.22,1.13-1.95,3.25-2.69,5.47-2.81,2.39-.14,4.79.52,6.87,1.75,3.65,2.16,6.22,5.72,8.7,9.18,8.91,12.45,17.83,24.91,26.74,37.38,6.24,8.72,12.62,17.6,21.23,23.99,8.62,6.41,19.97,10.04,30.25,6.94,1.88-.57,3.8-1.36,5.75-1.1,2.9.4,4.93,2.98,6.66,5.34,23.05,31.29,51.38,59.69,86.41,76.53,26.23,12.61,55.91,18.63,79.33,35.93,8.53,6.32,16.54,15.6,16.97,25.79.02.63.02,1.27,0,1.92-.02.39-.06.79-.1,1.19-.06.59-.16,1.19-.27,1.79-2.3,11.44-13.99,18.31-25.05,22.01-19.01,6.36-39.32,7.63-59.36,7.56-34.42-.12-69.02-4.12-101.84-14.45-31.05-9.77-60.55-25.37-84.65-47.21-.89-.8-1.51-1.81-1.87-2.88h0ZM647.96,1152.05c-5.44-34.14-26.96-66.13-44.71-97.06-54.58-95.11-78.92-207.26-68.71-316.45l.13-1.31c.81.03,1.63.03,2.44.03,15.58,0,31.43-1.62,47.04-4.86,25.21-5.24,45.35-13.18,60.72-24.02,2.59-1.84,6.11-1.61,8.42.6,49.81,47.76,130.89,69.57,203.79,69.57,19.35,0,38.1-1.53,55.56-4.53,28.09-4.82,59.08-22.96,62.43-54.09,2.93-26.98-17.67-51.39-41.21-64.87-23.54-13.49-50.61-19.61-74.76-32-53.46-27.39-86.92-81.94-113.94-135.59-27.03-53.65-51.54-110.7-95.74-151.38-40.74-37.51-96.31-57.79-151.71-57.79-1.95,0-3.9.03-5.86.07-55.86,1.46-113.66,23.27-155.84,60.22-68.86,60.33-111.54,147.71-122.63,238.09-11.06,90.17,4.99,181.89,32.53,268.45,23.77,74.78,56.56,150.81,54.76,227.96C138.66,974.46,30.46,796.17,30.46,592.62,30.46,282.14,282.15,30.46,592.6,30.46s562.14,251.68,562.14,562.16c0,291.78-222.3,531.63-506.78,559.43Z"/>
    <path class="cls-4" d="M711.56,505.81l-7.92-10.02-4.26-5.99c-6.66-9.34-20.54-28.77-42.77-28.77h-.02c-21.39.03-38.88,17.94-39.82,40.78-1.06,25.72,8.73,51.05,18.19,75.53,12.09,31.29,23.51,60.85,10.37,86.07-9.88,18.98-31.92,31.78-67.39,39.16-33.37,6.94-67.73,5.31-96.72-4.58-27.03-9.25-48.82-25.46-63.73-47.26-4.33-6.33-12.82-8.29-19.6-4.69-.65.35-1.26.73-1.84,1.16-4.04,2.94-6.27,7.6-6.27,12.35,0,2.93.85,5.88,2.64,8.5,18.6,27.21,45.61,47.37,78.96,58.76,10.48,3.57,21.52,6.25,32.91,7.98v.07c-10.98,115.56,14.78,234.63,72.54,335.29,2.83,4.93,5.76,9.91,8.6,14.71,11.84,20.07,23.25,39.43,29.17,58.24,1.33,4.21-1.68,8.52-6.09,8.67-6.34.23-12.7.34-19.05.34-48.09,0-96.24-6.23-143.11-18.51-39.03-10.21-76.63-24.48-112.09-42.54-.83-.42-1.55-1.02-2.12-1.72-.18-.24-.36-.48-.51-.74-.11-.17-.2-.34-.3-.53-.09-.2-.17-.4-.25-.6-.01-.04-.02-.06-.04-.1-.09-.28-.17-.56-.22-.85-.13-.58-.19-1.19-.15-1.81.16-2.52.28-5.03.38-7.55.03-.83.06-1.67.08-2.51.03-1.11.05-2.23.07-3.34v-.05c.02-1.47.03-2.93.03-4.4,0-3.61-.07-7.2-.19-10.79,0-.08,0-.15-.01-.23-.04-1.21-.09-2.43-.15-3.65-.01-.4-.04-.78-.06-1.15-.15-2.85-.33-5.71-.55-8.55-.22-2.84-.48-5.68-.78-8.52-.01-.21-.04-.44-.06-.65-.18-1.76-.37-3.54-.6-5.3-.37-3.11-.78-6.21-1.23-9.3-.42-2.96-.89-5.94-1.39-8.9-.33-1.96-.68-3.92-1.03-5.88-.3-1.56-.59-3.11-.89-4.67-.27-1.41-.54-2.8-.84-4.2-.59-2.94-1.21-5.89-1.88-8.84-.31-1.41-.63-2.83-.96-4.25-.03-.1-.06-.22-.08-.33-.78-3.36-1.61-6.71-2.44-10.05-.4-1.59-.81-3.17-1.22-4.75-.9-3.42-1.81-6.84-2.77-10.23-.45-1.65-.92-3.32-1.4-4.99-.94-3.31-1.92-6.64-2.91-9.94-.4-1.33-.81-2.68-1.22-4.02-.1-.29-.19-.6-.27-.89-.54-1.77-1.08-3.55-1.64-5.31-.64-2.07-1.3-4.15-1.95-6.2-.51-1.6-1.03-3.22-1.55-4.82-.2-.62-.39-1.23-.59-1.85-.52-1.61-1.05-3.2-1.57-4.8-.62-1.91-1.25-3.81-1.89-5.72-.94-2.86-1.89-5.71-2.86-8.56-.95-2.84-1.92-5.69-2.89-8.54-.63-1.89-1.28-3.77-1.92-5.67-.65-1.89-1.28-3.77-1.93-5.66-4.9-14.41-9.97-29.31-14.57-43.75-30.44-95.66-40.67-179.24-31.32-255.51,10.51-85.69,51.5-165.47,112.47-218.89,36.18-31.69,87.24-51.38,136.56-52.67,1.68-.05,3.38-.07,5.06-.07,48.96,0,96.75,18.14,131.09,49.75,34.22,31.51,55.73,75.07,78.5,121.21,3.47,7.03,7.06,14.32,10.66,21.46.07.13.13.26.2.41,2.14,4.24-3.66,7.94-6.6,4.22Z"/>
    <path class="cls-1" d="M672,678.21l-.14,5.63c-.1-.1-.2-.21-.28-.3-.03-.03-.05-.06-.08-.07h0c-.16-.5-.27-.99-.29-1.51-.04-.33-.05-.65-.03-.98.03-.65.15-1.31.39-1.93.08-.13.14-.28.21-.43h.01c.07-.14.13-.27.21-.41Z"/>
    <path class="cls-5" d="M498.02,510.39c-18.21,3.46-35.93-7.77-39.56-25.08-.08-.4-.15-.81-.21-1.21l-35.84-14.94c-5.11-2.13-7.52-8.01-5.39-13.11,2.13-5.11,8-7.52,13.11-5.39l31.71,13.23c.61-1.06,1.27-2.08,2-3.07l-15.39-25.48c-2.86-4.74-1.34-10.9,3.4-13.76,4.74-2.87,10.9-1.35,13.76,3.39l14.49,24c1.52-.52,3.11-.94,4.77-1.26,18.21-3.44,35.92,7.79,39.55,25.1,3.63,17.31-8.19,34.14-26.4,37.59Z"/>
    <path d="M927.67,687.75c-23.42-17.3-53.1-23.32-79.33-35.93-35.03-16.84-63.36-45.24-86.41-76.53-1.73-2.36-3.76-4.94-6.66-5.34-1.95-.26-3.87.53-5.75,1.1-10.28,3.1-21.63-.53-30.25-6.94-8.61-6.39-14.99-15.27-21.23-23.99-8.91-12.47-17.83-24.93-26.74-37.38-2.48-3.46-5.05-7.02-8.7-9.18-2.08-1.23-4.48-1.89-6.87-1.75-2.22.12-4.34.86-5.47,2.81-1.35,2.27-2.31,4.62-2.8,7.22-.12.67-.22,1.35-.29,2.03.08-.64.17-1.28.29-1.91.49-2.6,1.45-4.95,2.8-7.22,1.13-1.95,3.25-2.69,5.47-2.82,2.39-.13,4.79.53,6.87,1.75,3.65,2.17,6.22,5.72,8.7,9.18,8.91,12.46,17.83,24.92,26.74,37.38,6.24,8.73,12.62,17.61,21.23,24,8.62,6.4,19.97,10.04,30.25,6.94,1.88-.57,3.8-1.36,5.75-1.1,2.9.4,4.93,2.98,6.66,5.34,23.05,31.28,51.38,59.69,86.41,76.53,26.23,12.61,55.91,18.63,79.33,35.93,8.49,6.29,16.48,15.53,16.97,25.67-.43-10.19-8.44-19.47-16.97-25.79ZM672,678.09c-.17.31-.31.63-.43.96-.24.62-.36,1.28-.39,1.93.05-.81.25-1.6.6-2.36h.01c.07-.14.13-.27.21-.41,3.44-6.02,5.82-12.5,7.31-19.23-1.52,6.69-3.9,13.13-7.31,19.11ZM331.05,1077.16c-.1,2.52-.22,5.03-.38,7.55-.04.62.02,1.23.15,1.81-.13-.58-.17-1.19-.13-1.81.16-2.52.28-5.03.36-7.55ZM330.27,1042.49c.22,2.84.4,5.7.55,8.55-.14-2.85-.32-5.71-.55-8.55Z"/>
    <path class="cls-2" d="M944.64,713.66c.02.63.02,1.27,0,1.92-.03.35-.06.71-.1,1.07-.06.59-.16,1.19-.27,1.79-2.3,11.44-13.99,18.31-25.05,22.01-19.01,6.36-39.32,7.63-59.36,7.56-34.42-.12-69.02-4.12-101.84-14.45-31.05-9.77-60.55-25.37-84.65-47.21-.84-.76-1.45-1.69-1.79-2.69-.2-.51-.32-1.04-.37-1.58-.04-.33-.05-.65-.03-.98.03-.65.15-1.31.39-1.93.12-.33.26-.65.43-.96,3.41-5.98,5.79-12.42,7.31-19.11.34-1.55.64-3.11.9-4.69.14-.83.27-1.68.38-2.51.23-1.7.41-3.39.54-5.1.38-4.98.37-10.05.04-15.13-.03-.39-.05-.79-.08-1.19-.08-.97-.16-1.93-.27-2.89-.05-.67-.13-1.35-.21-2.02-.08-.76-.17-1.5-.28-2.23-.13-1.01-.28-2.03-.44-3.04-1.09-7.08-2.73-14.07-4.75-20.82-8.2-27.52-21.8-53.46-27.07-81.68-.38-2.08-.71-4.21-.91-6.36-.04-.42-.08-.85-.11-1.28-.05-.82-.08-1.66-.08-2.49,0-.62.01-1.25.05-1.87.02-.33.03-.65.07-.98.01-.28.04-.56.08-.83.07-.68.17-1.36.29-2.03.49-2.6,1.45-4.95,2.8-7.22,1.13-1.95,3.25-2.69,5.47-2.81,2.39-.14,4.79.52,6.87,1.75,3.65,2.16,6.22,5.72,8.7,9.18,8.91,12.45,17.83,24.91,26.74,37.38,6.24,8.72,12.62,17.6,21.23,23.99,8.62,6.41,19.97,10.04,30.25,6.94,1.88-.57,3.8-1.36,5.75-1.1,2.9.4,4.93,2.98,6.66,5.34,23.05,31.29,51.38,59.69,86.41,76.53,26.23,12.61,55.91,18.63,79.33,35.93,8.53,6.32,16.54,15.6,16.97,25.79Z"/>
    <circle class="cls-5" cx="717.82" cy="605.33" r="14.51"/>
  </g>
  <g class="cls-7">
    <polygon class="cls-4" points="1498.99 715.55 1418.19 773.1 1328.31 773.18 1251.5 884.77 1211.54 961.99 1183.02 1036.03 1164.04 1106.45 1154.5 1182.86 1162.41 1268.35 1176.04 1310.61 1212.21 1369.9 1266.65 1433.3 1339.12 1491.91 1430.31 1537.85 1516.81 1559.65 1547.55 1563.01 1596.56 1565.27 1642.75 1566.08 1681.88 1567.22 1749.17 1576.89 1785.75 1581.83 1811.44 1590.65 1835.13 1606.68 1842.9 1618.65 1860.11 1589.43 1881.75 1586.8 1904.7 1593.16 1917.5 1573.14 1942.61 1601.14 1960.14 1571.91 2000.95 1522.44 2091.16 1489.83 2182.36 1424.3 2227.21 1362.77 2268.93 1365.34 2322.17 1322.86 2363.9 1274.55 2395.91 1220.66 2417.67 1162.33 2427.18 1104.33 2427.21 1050.68 2388.08 1040.76 2367.67 1014.31 2341.72 978.62 2324.85 909.85 2320.95 815.12 2331.73 852.89 2345 919.4 2359 959.93 2376.05 991.06 2388.08 1040.76 2393.54 1075.87 2393.24 1103.99 2369.89 1109.7 2344.68 1094.3 2328.27 1049.07 2316.32 997.01 2295.77 946.36 2271.24 906.71 2250.53 867.42 2200.18 820.19 2168.67 794.15 2155.12 768.95 2148.52 755.13 2178.54 701.62 2179.18 659.08 2168.68 612.01 2149.38 581.87 2124.29 561.51 2093.35 549.74 2102.83 473.89 2083.68 356.96 2053.77 310.19 2008.78 266.12 1971.16 243.78 1915.05 225.24 1847.75 222.26 1799.27 231.69 1738.22 270.42 1669.88 340.17 1635.56 402.01 1601.87 468.21 1575.1 525.37 1498.99 715.55"/>
  </g>
</svg>