<?xml version="1.0" encoding="UTF-8"?>
<svg id="Capa_1" data-name="Capa 1" xmlns="http://www.w3.org/2000/svg" xmlns:xlink="http://www.w3.org/1999/xlink" viewBox="0 0 1185.2 1185.2">
  <defs>
    <style>
      .cls-1 {
        fill: none;
      }

      .cls-2 {
        fill: #f28f31;
      }

      .cls-3 {
        fill: #262626;
      }

      .cls-4 {
        fill: #d36c18;
      }

      .cls-5 {
        fill: #eee5e9;
      }

      .cls-6 {
        clip-path: url(#clippath);
      }
    </style>
    <clipPath id="clippath">
      <circle class="cls-1" cx="592.6" cy="592.6" r="580.5"/>
    </clipPath>
  </defs>
  <g>
    <circle class="cls-5" cx="592.6" cy="592.6" r="576.77"/>
    <path d="M592.6,1177.28C270.21,1177.28,7.92,915,7.92,592.6S270.21,7.92,592.6,7.92s584.68,262.29,584.68,584.69-262.29,584.68-584.68,584.68ZM592.6,23.75C278.93,23.75,23.75,278.93,23.75,592.6s255.19,568.85,568.86,568.85,568.85-255.19,568.85-568.85S906.27,23.75,592.6,23.75Z"/>
  </g>
  <g class="cls-6">
    <polygon class="cls-2" points="437.53 587.79 511.12 513.73 533.1 413 549.64 488.43 559.86 581.85 568.56 669.26 558.34 764.65 546.34 814.9 515.26 783.58 461.04 667.77 430.08 597.33 437.53 587.79"/>
    <polygon class="cls-2" points="598.42 322.77 649.56 390.78 686.69 385.62 733.04 356.2 699.09 463.3 676.72 547.94 655.65 631.57 619.47 684.9 610.87 642.78 607.98 549.51 609.96 434.52 598.42 322.77"/>
    <polygon class="cls-4" points="512.9 1007.23 500.66 1087.48 499.89 1155.5 479.04 1229.19 492.58 1295.03 533.18 1315.2 574.07 1268.61 595.91 1150.21 602.92 1006.98 636.2 856.9 682.5 731.57 753.5 558.23 782.9 445.66 783.51 344.3 772.47 324.62 752.72 329.75 723.39 386.22 696.07 472.89 674.06 558.24 651.64 647.52 616.97 683.66 609.46 614.1 615.64 488.7 604.13 378.85 594.36 312.94 565.95 256.15 547.37 236.16 529.91 329.19 549.64 488.43 560.68 589.36 565.11 691.86 556.81 781.11 546.34 814.9 515.26 783.58 481.16 696.58 454.78 632.34 420.29 598.64 402.31 621.71 420.87 685.98 486.43 829.78 500.09 932.02 512.9 1007.23"/>
    <path class="cls-3" d="M529.09,1323.84c-1.51,0-3.03-.06-4.56-.17-24.26-1.84-44.45-18.04-51.43-41.29-3.35-11.16-5.21-22.75-5.55-34.44-.8-28.12,5.61-55.04,11.82-81.08,2.08-8.73,4.16-17.46,5.96-26.22,13.09-63.85,7.3-196.07,7.24-197.4-4.97-80.41-19.63-111.76-38.21-151.45-4.58-9.79-9.31-19.91-14.25-31.41-5.33-12.45-11.97-24.91-19-38.09-18.38-34.49-37.39-70.14-33.32-108.24.37-9.28,3.03-24.74,16.13-29.32,2.4-.84,5.91-1.53,10.03-.75,67.3-40.49,96.9-83.94,95.91-140.68-1.26-72.13,4.22-126.46,13.47-190.65.44-4.75.95-9.49,1.52-14.22,1.32-11.05,9.6-19.67,20.61-21.47.24-.03.47-.07.7-.1l1.31-.68,3.81.51c3.47.24,6.8,1.2,9.8,2.79,7.39,3.74,11.29,10.27,13.88,14.59.97,1.63,1.9,3.18,2.76,4.21,22.31,26.79,36.13,59.68,47.23,86.1,4.42,10.51,8.23,19.59,11.85,26.55,2.05,3.94,3.67,7.46,5.13,10.62,5.1,11.07,5.63,12.23,16.04,15.34,6.29,1.88,13.46.43,19.14-3.88,16.11-12.21,26.65-21.62,37.8-31.58,7.97-7.12,16.16-14.44,26.65-23,2.25-2.47,4.85-4.54,7.68-6.17l1.81-.97c5.25-2.6,11.19-3.76,17.24-3.24,8.1.14,15.99,2.91,21.03,10.15,2.93,3.12,5.24,6.83,6.76,10.95,2.95,4.97,3.14,8.6,3.25,15.26l.02,1.34c2.32,133.27-45.5,251.53-91.75,365.89-39.05,96.56-79.43,196.41-89.54,305.14-2.34,25.18-3.19,51.98-4.01,77.9-2.14,67.41-4.34,137.1-32.07,195.65-9.82,20.72-30.25,33.53-52.9,33.53ZM419.04,620.1c-1.79,27.62,13.67,56.63,30.01,87.29,7.03,13.19,14.3,26.83,20.16,40.51,4.73,11.03,9.35,20.91,13.83,30.47,19.2,41.05,35.79,76.49,41.14,163.17.27,5.84,6.05,137.74-7.83,205.45-1.86,9.08-4.02,18.13-6.18,27.19-5.99,25.15-11.65,48.9-10.97,72.84.26,8.8,1.72,17.88,4.22,26.25,4.86,16.18,19.21,18.49,23.49,18.81,9.02.66,20.62-3,26.46-15.34,24.91-52.59,27.01-118.93,29.04-183.1.84-26.39,1.7-53.68,4.14-79.82,10.55-113.36,51.81-215.4,91.71-314.08,47.13-116.55,91.65-226.64,89.45-353.47l-.02-1.37c0-.32-.01-.61-.02-.89-.2-.43-.39-.87-.55-1.31-.51-.79-1.07-1.68-1.69-2.7-.09.02-.19.03-.28.05-.29.23-.58.46-.86.7-31.02,48.07-45.94,107.87-60.38,165.72-3.24,12.97-6.46,25.9-9.85,38.67-12.19,45.95-27.28,91.66-44.85,135.87-5.07,12.77-18.08,20.11-31.69,17.84-13.66-2.28-23.65-13.5-24.31-27.29-1.6-33.45.79-67.32,3.1-100.08,1.55-21.93,3.15-44.61,3.49-66.61,1.24-80.73-14.6-162.04-45.97-236.77-5.36,75.19,3.84,153.22,12.77,228.95,11.99,101.71,24.39,206.89,1.83,306.36-2.91,12.81-11.34,21.25-22.56,22.59-17.68,2.15-34.37-14.17-42.33-30.21-9.09-18.31-16.53-38.51-24.42-59.9-15.25-41.39-30.97-84.05-59.84-115.81-.08,0-.16.02-.24.03ZM537.21,797.51h0ZM445.26,601.66c31.43,36.06,48.39,82.08,63.57,123.28,7.58,20.57,14.73,39.99,23.07,56.77,2.03,4.09,4.57,7.24,6.81,9.41,19.77-92.54,8.43-188.69-3.56-290.37-.23-1.96-.46-3.92-.69-5.88-12.51,40.49-41.73,75.33-89.2,106.79ZM622.5,391.15c6.51,37.73,9.55,76.02,8.96,114.2-.35,22.88-1.98,46-3.56,68.36-1.96,27.63-3.97,56.08-3.47,83.75,15.14-39.34,28.25-79.8,39.03-120.44,3.35-12.62,6.54-25.4,9.74-38.21,8.9-35.64,17.97-72.01,30.89-106.61-2.48,1.95-5.07,3.97-7.82,6.04-13.71,10.39-31.4,13.75-47.33,8.99-13.49-4.04-21.2-9.64-26.42-16.07Z"/>
    <path class="cls-3" d="M390.05,499.94c-1.62,0-3.27-.25-4.9-.78l-59.1-19.22c-8.31-2.71-12.86-11.64-10.16-19.95,2.71-8.31,11.65-12.86,19.95-10.16l59.1,19.22c8.31,2.71,12.86,11.64,10.16,19.95-2.18,6.69-8.38,10.94-15.05,10.94Z"/>
    <path class="cls-3" d="M412.3,451.34c-5.98,0-11.7-3.4-14.37-9.18-16.66-35.94-32.27-72.91-46.4-109.91-3.12-8.17.97-17.32,9.14-20.44,8.16-3.12,17.32.97,20.44,9.14,13.88,36.32,29.2,72.62,45.55,107.9,3.68,7.93.23,17.34-7.71,21.02-2.15,1-4.42,1.47-6.64,1.47Z"/>
    <path class="cls-3" d="M464.44,447.63c-1.62,0-3.27-.25-4.9-.78-8.31-2.71-12.86-11.64-10.16-19.95l16.88-51.89c2.71-8.31,11.65-12.84,19.95-10.16,8.31,2.71,12.86,11.64,10.16,19.95l-16.88,51.89c-2.18,6.69-8.38,10.94-15.05,10.94Z"/>
  </g>
  <path class="cls-3" d="M592.6,1185.2C265.84,1185.2,0,919.36,0,592.6S265.84,0,592.6,0s592.6,265.84,592.6,592.6-265.84,592.6-592.6,592.6ZM592.6,31.66C283.3,31.66,31.66,283.3,31.66,592.6s251.64,560.94,560.94,560.94,560.94-251.64,560.94-560.94S901.9,31.66,592.6,31.66Z"/>
</svg>