<?xml version="1.0" encoding="UTF-8"?>
<svg id="Capa_1" data-name="Capa 1" xmlns="http://www.w3.org/2000/svg" xmlns:xlink="http://www.w3.org/1999/xlink" viewBox="0 0 1185.2 1185.12">
  <defs>
    <style>
      .cls-1 {
        fill: none;
      }

      .cls-2 {
        fill: #f28f31;
      }

      .cls-3 {
        fill: #fff;
      }

      .cls-4 {
        fill: #262626;
      }

      .cls-5 {
        fill: #d36c18;
      }

      .cls-6 {
        fill: #eee5e9;
      }

      .cls-7 {
        clip-path: url(#clippath);
      }
    </style>
    <clipPath id="clippath">
      <circle class="cls-1" cx="592.6" cy="592.54" r="580.09"/>
    </clipPath>
  </defs>
  <path class="cls-6" d="M1152.76,592.56c0,308.81-251.31,560.12-560.12,560.12S32.44,901.37,32.44,592.56,283.75,32.44,592.64,32.44s560.12,251.23,560.12,560.12Z"/>
  <g class="cls-7">
    <g>
      <polygon class="cls-3" points="96.64 715.5 15.84 773.05 -74.04 773.13 -150.85 884.72 -190.81 961.94 -219.33 1035.98 -238.31 1106.4 -247.85 1182.81 -239.94 1268.3 -226.31 1310.56 -190.14 1369.85 -135.7 1433.25 -63.23 1491.86 27.96 1537.79 114.45 1559.6 145.2 1562.96 194.21 1565.22 240.4 1566.02 279.53 1567.17 346.82 1576.84 383.4 1581.78 409.09 1590.6 432.78 1606.63 440.55 1618.6 457.76 1589.38 479.4 1586.75 502.34 1593.11 515.15 1573.09 540.26 1601.09 557.79 1571.85 598.6 1522.39 688.81 1489.78 780 1424.25 824.86 1362.72 866.58 1365.29 919.82 1322.81 961.55 1274.5 993.56 1220.61 1015.32 1162.28 1024.83 1104.28 1024.86 1050.63 985.73 1040.71 965.32 1014.25 939.37 978.57 922.5 909.79 918.6 815.07 929.38 852.84 942.65 919.35 956.65 959.88 973.7 991 985.73 1040.71 991.19 1075.82 990.89 1103.94 967.54 1109.65 942.33 1094.25 925.92 1049.02 913.97 996.96 893.42 946.31 868.89 906.66 848.18 867.37 797.83 820.14 766.32 794.1 752.77 768.9 746.17 755.08 776.19 701.57 776.83 659.03 766.33 611.96 747.03 581.82 721.94 561.46 691 549.69 700.47 473.84 681.33 356.91 651.42 310.14 606.43 266.07 568.81 243.73 512.7 225.19 445.39 222.21 396.92 231.64 335.87 270.37 267.53 340.12 233.21 401.96 199.52 468.16 172.75 525.32 96.64 715.5"/>
      <polygon class="cls-2" points="513.39 599.9 537.89 550.52 557.89 536.56 577.4 554.78 595.16 566.32 621.92 545.21 644.53 543.03 657.75 564.89 660.6 606.51 656.57 649.77 659.11 696.14 698.84 779.38 728.27 829.29 741.08 860.02 733.02 888.09 705.82 895.35 667.82 907.03 627.98 893.95 592.9 870.68 545.23 858.7 519.9 845.22 497.26 774.98 476.58 733.77 450.38 709.63 421.35 689.96 417.99 666.4 441.54 642.71 487.09 624.1 510.62 589.52 513.39 599.9"/>
      <polygon class="cls-2" points="758.12 742.34 776.19 701.57 776.83 659.03 795 662.68 822.4 710.44 847.58 755.33 864.48 808.94 869.83 838.74 845.79 829.22 789.51 779.76 759.39 747.08 758.12 742.34"/>
      <polygon class="cls-2" points="803.11 581.04 825.72 586.81 850.35 564.23 864.29 567.04 869.34 614.12 877.18 664.82 885.5 714.66 878.84 750.61 864.09 731.19 840.65 681.79 814.73 619.58 803.11 581.04"/>
      <polygon class="cls-5" points="897.01 949.84 909.27 995.8 924.82 1032.5 930.92 1076.96 953.64 1109.13 980.17 1110.43 991.19 1075.82 975.13 1007.13 945.28 928.59 927.93 840.2 923.38 762.05 920.82 652.32 910.19 584.98 886.73 530.42 876.18 522.45 866.79 529.84 864.29 567.04 869.96 619.98 878.18 670.97 887.09 724.16 878.84 750.61 856.6 716.12 830.49 647.34 798.53 591.07 777.82 557.97 749.24 534.15 733.46 531.56 747.03 581.82 795 662.68 824.6 714.29 851.04 768.27 867.52 818.14 869.83 838.74 845.79 829.22 807.07 790.51 777.84 762.21 751.41 752.21 747.17 768.81 772.21 798.96 841.16 860.79 872.49 912.47 897.01 949.84"/>
      <g>
        <path class="cls-4" d="M-51.45,913.49c-1.71,0-3.45-.27-5.16-.85-8.49-2.85-13.07-12.04-10.22-20.53,27.17-81.03,84.63-152.98,157.64-197.4,7.67-4.65,17.64-2.22,22.29,5.43,4.66,7.65,2.23,17.63-5.42,22.29-66.57,40.5-118.97,106.11-143.75,179.99-2.27,6.78-8.59,11.07-15.37,11.07Z"/>
        <path class="cls-4" d="M73.74,841.02c-1.2,0-2.41-.13-3.63-.41-8.73-1.99-14.2-10.69-12.2-19.42,24.07-105.41,78.53-259.03,129.49-365.27,46.73-97.42,108.03-201.96,208.35-238.63,68.62-25.09,151.45-12.54,216.16,32.75,128.91,90.24,126.93,272.08,59.61,397.36-4.23,7.89-14.06,10.86-21.96,6.61-7.89-4.24-10.85-14.07-6.61-21.96,81.33-151.36,35.12-296.1-49.64-355.44-55.3-38.71-128.48-50.03-186.42-28.86-89.39,32.68-146.33,130.66-190.24,222.19-50.05,104.35-103.51,255.1-127.11,358.47-1.71,7.52-8.4,12.61-15.8,12.61Z"/>
        <path class="cls-4" d="M665.53,923.33c-17.5,0-31.88-9.75-43.58-17.67l-2.97-2.01c-23.57-15.8-50.69-27.28-78.43-33.21l-1.87-.4c-7.55-1.58-16.95-3.56-25.32-9.37-16.93-11.74-20.6-31.45-23.54-47.29l-.85-4.49c-6.82-34.94-15.34-58.56-40.28-81.93-15.12-7.28-38.88-21.75-45.71-43.19-3.45-10.83-2.15-21.97,3.76-32.23,6.81-11.82,18.51-20.55,35.77-26.69,3.71-1.32,7.48-2.47,11.25-3.63,6.8-2.08,13.23-4.04,18.6-6.93,16.05-8.61,25.85-26.68,36.24-45.81,4.89-9.01,9.95-18.32,15.88-27.08,14.61-21.53,30.42-22.12,38.55-20.54,14.19,2.75,21.35,14.37,26.09,22.06,1.3,2.11,3.33,5.4,4.72,6.93,2.1-1.43,5.58-5.13,7.79-7.48,7.67-8.16,17.93-19.32,34.25-18.85,13.81.41,26.32,10.12,33.47,25.98,11.34,25.16,8.44,51.18,5.63,76.33-1.51,13.59-2.94,26.42-2.11,38.62,1.48,21.79,10.34,42.94,20.9,66.34,11.57,25.65,24.23,52.79,40.35,77.69l2.94,4.5c7.95,12.09,16.96,25.78,19.81,42.45,3.83,22.37-6.85,49.26-31.34,55.54-5.66,1.45-10.99,1.44-15.34,1.45-2.04,0-4.07-.05-6.08.21-3.52.45-7.73,2.2-12.18,4.06-6.58,2.74-14.05,5.85-22.88,6.51-1.18.09-2.34.13-3.5.13ZM557,553.28c-1.2.87-3.26,2.78-5.69,6.35-5.04,7.43-9.5,15.64-14.22,24.34-12.2,22.48-24.82,45.71-49.41,58.91-8.18,4.39-16.46,6.92-24.46,9.37-3.31,1.01-6.62,2.02-9.87,3.17-9.54,3.39-15.78,7.54-18.53,12.31-1.57,2.72-1.52,4.44-.96,6.19,2.36,7.39,14.71,17.31,30.76,24.7l2.27,1.05,1.85,1.68c32.67,29.7,44.13,60.79,52.04,101.33l.9,4.77c2.05,11.03,4.17,22.43,10.14,26.57,2.98,2.07,8.09,3.14,13.49,4.28l1.99.42c31.73,6.78,62.76,19.91,89.72,37.98l3.11,2.1c9.59,6.49,18.72,12.63,26.46,12.05,3.62-.27,8.09-2.13,12.82-4.11,5.96-2.48,12.71-5.29,20.57-6.29,3.71-.47,7.2-.47,10.18-.47,2.87,0,5.57,0,7.27-.43,5.13-1.31,8.8-10.55,7.42-18.65-1.71-9.98-8.13-19.75-14.94-30.09l-3.08-4.7c-17.34-26.8-30.6-55.19-42.68-81.98-11.43-25.34-21.85-50.34-23.69-77.47-1.03-15.11.63-30.01,2.24-44.42,2.42-21.78,4.72-42.35-2.97-59.42-2.02-4.49-4.4-6.64-5.18-6.93-1.59.47-6.64,5.83-9.34,8.71-8.07,8.58-20.27,21.54-38.54,17.32-13.61-3.15-20.31-14.04-25.21-21.98-1.31-2.13-3.16-5.13-4.49-6.67Z"/>
        <path class="cls-4" d="M757.5,624.83c-6.68,0-11.8-7.83-14.16-14.48-7.54-21.32-42.09-26.67-58.13-28.28-8.91-.9-15.41-8.85-14.51-17.76.89-8.92,8.86-15.4,17.76-14.51,35.35,3.56,61.44,22.08,71.6,50.8,2.99,8.45-1.43,17.71-9.88,20.7-1.79.63,9.12,3.55,7.32,3.55Z"/>
        <ellipse class="cls-4" cx="566.95" cy="665.14" rx="14.76" ry="27.31" transform="translate(-255.95 370.73) rotate(-29.87)"/>
        <path class="cls-4" d="M638.08,912.51c-3.61,0-7.24-1.2-10.25-3.65-6.93-5.66-10.6-10.69-15.24-17.06-3.22-4.42-7.24-9.93-13.95-17.98l-9.46-11.29c-38.81-46.17-82.81-98.5-94.59-164.71-1.57-8.82,4.31-17.24,13.13-18.81,8.85-1.58,17.24,4.31,18.81,13.13,10.26,57.66,49.52,104.36,87.48,149.52l9.54,11.37c7.4,8.86,11.94,15.1,15.26,19.66,4.14,5.68,5.85,8.02,9.53,11.04,6.94,5.66,7.97,15.88,2.31,22.82-3.21,3.93-7.87,5.96-12.57,5.96Z"/>
        <path class="cls-4" d="M966.09,1121.85c-10.64,0-20.88-4.6-28.07-13.08-4.58-5.4-8.43-11.39-11.48-17.82-7.19-15.26-10.1-31.4-12.91-47.01-.93-5.15-1.85-10.3-2.94-15.4-7.88-37-41.86-106.31-42.2-107.01-21.27-41.47-35.57-54.05-55.37-71.45-4.76-4.19-9.75-8.57-15.09-13.59-5.7-5.35-12.14-10.44-18.96-15.83-18.28-14.45-37.18-29.4-44.23-51.6-1.07-2.77-2.18-6.56-2.25-10.47l-.58-.2.59-.82c.11-3.93,1.35-7.92,4.79-11.11,1.01-.93,2.81-2.3,5.4-3.12,25.46-36.21,30.9-65.38,17.63-94.35-17.59-38.42-27.43-68.89-37.53-105.45-.91-2.8-1.79-5.6-2.65-8.42-2.25-7.48.64-15.35,7.19-19.6l.82-1.01,2.95-.85c2.82-.99,5.81-1.23,8.66-.74,4.9.77,8.57,3.39,10.7,4.91.65.47,1.31.99,2.08,1.38,18.65,9.34,33.96,23.92,46.26,35.63,4.8,4.57,8.94,8.51,12.43,11.32,2.06,1.67,3.79,3.21,5.35,4.59,4.91,4.37,4.93,4.38,9.93,3.76,2.87-.35,5.63-2.31,7.2-5.11,5.73-10.25,9.16-17.72,12.79-25.64,2.6-5.67,5.27-11.5,8.86-18.53.7-1.99,1.68-3.85,2.89-5.53l1.08-1.37c2.67-3.13,6.21-5.49,10.3-6.74,5.01-1.86,10.45-1.99,15.28.85,2.53,1.11,4.85,2.69,6.83,4.71,3.15,2.35,4.36,4.74,6.03,8.4,33.1,72.26,35.18,147.27,37.19,219.81,1.69,60.8,3.44,123.66,23.39,184.01,4.62,13.98,10.44,28.52,16.07,42.58,14.78,36.97,30.07,75.2,28.9,113.74-.47,15.53-10.26,28.89-24.95,34.03-4.08,1.43-8.26,2.12-12.38,2.12ZM761.5,769.43c6.73,11.65,19.39,21.66,32.67,32.15,6.91,5.47,14.06,11.12,20.51,17.18,5.14,4.82,9.93,9.03,14.51,13.06,20.16,17.73,37.57,33.03,61.04,78.8,1.54,3.13,35.75,72.9,44.25,112.86,1.14,5.35,2.11,10.75,3.09,16.16,2.65,14.71,5.16,28.6,10.98,40.95,2.09,4.43,4.86,8.75,8.01,12.47,5.22,6.14,11.92,4.41,13.87,3.73,1.97-.69,8.42-3.58,8.67-11.8,1.01-33.48-13.32-69.32-27.18-103.97-5.76-14.4-11.71-29.29-16.57-43.98-21.07-63.74-22.87-128.42-24.61-190.97-2-72.14-3.9-140.35-33.19-206.37-3.68,30.88,1.92,63.96,7.34,96.03,1.31,7.73,2.61,15.44,3.79,23.1,4.25,27.61,6.88,55.8,7.83,83.82.32,9.41-5.84,17.6-15,19.91-9.18,2.31-18.56-1.99-22.76-10.48-8.78-17.73-15.48-36.57-21.96-54.79-4.3-12.09-8.74-24.6-13.69-36.42-16.51-39.42-40.68-75.79-70.62-106.5,15.77,41.67,38.07,82.05,59.75,121.31,26.66,48.28,54.24,98.21,69.31,150.07,3.25,11.18-3.29,16.48-5.36,17.84-8.55,5.57-18.24,1.72-38.48-15.25-6.46-5.42-12.71-11.08-18.98-16.77-17.79-16.12-34.76-31.49-57.23-42.12ZM769.88,746.5c26.78,12.21,46.26,29.87,65.19,47.02,4.79,4.34,9.56,8.67,14.44,12.88-14.75-39.57-35.88-77.93-58.06-118.08-1.69,18.55-8.84,37.75-21.57,58.18ZM818.09,598.6c10.58,16.85,19.79,34.55,27.46,52.85,5.2,12.44,9.76,25.26,14.18,37.67,3.72,10.48,7.33,20.62,11.25,30.45-1.32-19.14-3.44-38.25-6.34-57.07-1.16-7.54-2.45-15.13-3.73-22.74-3.09-18.23-6.22-36.78-7.82-55.38-5.55,7.88-14.11,13.13-23.52,14.28-4.48.55-8.27.47-11.49-.06Z"/>
      </g>
      <path class="cls-4" d="M863.82,494.09c-7.17,0-13.72-4.79-15.66-12.04l-9.38-35.18c-2.3-8.65,2.84-17.54,11.49-19.85,8.7-2.32,17.54,2.84,19.85,11.49l9.38,35.18c2.3,8.65-2.84,17.54-11.49,19.85-1.4.37-2.81.55-4.19.55Z"/>
      <path class="cls-4" d="M904.52,488.78c-2.95,0-5.94-.8-8.62-2.49-7.59-4.77-9.87-14.78-5.1-22.36,12.44-19.77,25.73-39.37,39.52-58.25,5.28-7.23,15.43-8.82,22.67-3.53,7.23,5.28,8.81,15.43,3.53,22.66-13.34,18.27-26.21,37.24-38.25,56.38-3.08,4.9-8.35,7.59-13.75,7.59Z"/>
      <path class="cls-4" d="M932.69,526.71c-7.17,0-13.72-4.79-15.66-12.04-2.3-8.66,2.84-17.54,11.49-19.85l30.89-8.24c8.71-2.32,17.54,2.84,19.85,11.49,2.3,8.65-2.84,17.54-11.49,19.85l-30.89,8.24c-1.4.37-2.81.55-4.19.55Z"/>
    </g>
  </g>
  <path class="cls-4" d="M409.84,865.47c-8.8,0-16.02-7.04-16.21-15.89-1.05-51.28,16.72-103.67,48.76-143.73,5.6-6.99,15.8-8.14,22.8-2.54,7,5.6,8.13,15.8,2.54,22.8-27.37,34.23-42.55,78.99-41.66,122.81.18,8.95-6.93,16.36-15.88,16.55-.11,0-.23,0-.34,0Z"/>
  <path class="cls-4" d="M592.64,0C265.83,0,0,265.83,0,592.56s265.83,592.56,592.64,592.56,592.56-265.83,592.56-592.56S919.37,0,592.64,0ZM592.64,1152.68c-308.89,0-560.2-251.31-560.2-560.12S283.75,32.44,592.64,32.44s560.12,251.23,560.12,560.12-251.31,560.12-560.12,560.12Z"/>
  <g>
    <g>
      <path class="cls-4" d="M434.91,444.77c-2.59-1.14-4.62-3.51-5.26-6.56-3.24-15.56-9.19-25.35-17.68-29.08-.03-.01-.05-.02-.08-.04-14.82-6.44-34.28,5.92-34.48,6.04-4.2,2.7-9.74,1.41-12.38-2.89-2.64-4.3-1.41-9.99,2.77-12.72.28-.18,6.88-4.45,16.1-7.52,12.85-4.28,24.92-4.27,34.88.03.09.04.18.08.26.12,14.15,6.23,23.63,20.42,28.17,42.18,1.04,4.99-2.05,9.9-6.9,10.96-1.89.42-3.76.19-5.41-.54Z"/>
      <path class="cls-4" d="M438.42,448.64c-1.61,0-3.2-.33-4.71-1-3.58-1.58-6.21-4.85-7.03-8.77-3.02-14.52-8.37-23.55-15.9-26.87-13.35-5.81-31.57,5.66-31.75,5.78-5.6,3.61-13.03,1.88-16.56-3.87-3.52-5.75-1.86-13.38,3.71-17.02.29-.19,7.18-4.66,16.79-7.85,13.55-4.51,26.35-4.47,36.99.12,15.4,6.77,25.47,21.71,30.23,44.52.67,3.23.08,6.53-1.66,9.3-1.74,2.77-4.43,4.68-7.57,5.37-.84.18-1.69.28-2.53.28ZM402.35,404.13c3.61,0,7.26.59,10.72,2.1,9.54,4.2,16.09,14.73,19.55,31.34.4,1.94,1.7,3.56,3.48,4.34h0c1.14.5,2.38.62,3.58.35,1.55-.34,2.88-1.28,3.74-2.66.87-1.37,1.15-3,.82-4.6-4.31-20.72-13.19-34.16-26.39-39.97-9.53-4.11-20.86-4.09-33.01-.04-8.88,2.95-15.14,7.01-15.41,7.19-2.76,1.8-3.57,5.57-1.83,8.42,1.74,2.84,5.42,3.69,8.2,1.91.15-.1,13.06-8.37,26.55-8.37Z"/>
    </g>
    <g>
      <path class="cls-4" d="M393.32,400.01c7.28-2.55,15.22-2.97,22.81-1.08l2.17-30.81c.44-6.25-4.26-11.67-10.52-12.1-6.25-.44-11.67,4.26-12.11,10.51l-2.35,33.48Z"/>
      <path class="cls-4" d="M382.74,412.86c4.11-5.84,9.5-10.22,15.52-13.07l-20.68-32.83c-3.34-5.3-10.34-6.89-15.64-3.55-5.29,3.33-6.89,10.34-3.55,15.64l22.81,36.19c.48-.8.99-1.6,1.53-2.37Z"/>
    </g>
  </g>
</svg>