<?xml version="1.0" encoding="UTF-8"?>
<svg id="Capa_1" data-name="Capa 1" xmlns="http://www.w3.org/2000/svg" viewBox="0 0 1400 1400">
  <defs>
    <style>
      .cls-1, .cls-2 {
        fill: none;
      }

      .cls-3 {
        fill: #f28f31;
      }

      .cls-4 {
        fill: #1dadb5;
      }

      .cls-5 {
        fill: #fff;
      }

      .cls-6 {
        fill: #262626;
      }

      .cls-2 {
        stroke: #262626;
        stroke-linecap: round;
        stroke-miterlimit: 10;
        stroke-width: 24px;
      }
    </style>
  </defs>
  <path class="cls-4" d="M840.52,597.47l-9.36-11.84-5.03-7.08c-7.87-11.03-24.26-33.98-50.52-33.98h-.02c-25.27.04-45.93,21.19-47.04,48.17-1.25,30.38,10.31,60.3,21.49,89.22,14.28,36.96,27.77,71.88,12.25,101.67-11.67,22.42-37.71,37.54-79.6,46.26-39.42,8.2-80.01,6.27-114.25-5.41-31.93-10.93-57.67-30.07-75.28-55.82-5.11-7.48-15.14-9.79-23.15-5.54-.77.41-1.49.86-2.17,1.37-4.77,3.47-7.41,8.98-7.41,14.59,0,3.46,1,6.95,3.12,10.04,21.97,32.14,53.88,55.95,93.27,69.41,12.38,4.22,25.42,7.38,38.87,9.43v.08c-12.97,136.5,17.46,277.15,85.69,396.05,3.34,5.82,6.8,11.71,10.16,17.38,13.99,23.71,27.46,46.58,34.46,68.79,1.57,4.97-1.98,10.06-7.19,10.24-7.49.27-15,.4-22.5.4-56.81,0-113.68-7.36-169.05-21.86-46.1-12.06-90.52-28.92-132.4-50.25-.98-.5-1.83-1.2-2.5-2.03-.21-.28-.43-.57-.6-.87-.13-.2-.24-.4-.35-.63-.11-.24-.2-.47-.3-.71-.01-.05-.02-.07-.05-.12-.11-.33-.2-.66-.26-1-.15-.69-.22-1.41-.18-2.14.19-2.98.33-5.94.45-8.92.04-.98.07-1.97.09-2.96.04-1.31.06-2.63.08-3.95v-.06c.02-1.74.04-3.46.04-5.2,0-4.26-.08-8.5-.22-12.75,0-.09,0-.18-.01-.27-.05-1.43-.11-2.87-.18-4.31-.01-.47-.05-.92-.07-1.36-.18-3.37-.39-6.74-.65-10.1-.26-3.35-.57-6.71-.92-10.06-.01-.25-.05-.52-.07-.77-.21-2.08-.44-4.18-.71-6.26-.44-3.67-.92-7.34-1.45-10.99-.5-3.5-1.05-7.02-1.64-10.51-.39-2.32-.8-4.63-1.22-6.95-.35-1.84-.7-3.67-1.05-5.52-.32-1.67-.64-3.31-.99-4.96-.7-3.47-1.43-6.96-2.22-10.44-.37-1.67-.74-3.34-1.13-5.02-.04-.12-.07-.26-.09-.39-.92-3.97-1.9-7.93-2.88-11.87-.47-1.88-.96-3.74-1.44-5.61-1.06-4.04-2.14-8.08-3.27-12.08-.53-1.95-1.09-3.92-1.65-5.89-1.11-3.91-2.27-7.84-3.44-11.74-.47-1.57-.96-3.17-1.44-4.75-.12-.34-.22-.71-.32-1.05-.64-2.09-1.28-4.19-1.94-6.27-.76-2.45-1.54-4.9-2.3-7.32-.6-1.89-1.22-3.8-1.83-5.69-.24-.73-.46-1.45-.7-2.19-.61-1.9-1.24-3.78-1.85-5.67-.73-2.26-1.48-4.5-2.23-6.76-1.12-3.38-2.26-6.74-3.38-10.11-1.12-3.35-2.27-6.72-3.41-10.09-.74-2.23-1.51-4.45-2.27-6.7-.77-2.23-1.51-4.45-2.28-6.69-5.79-17.02-11.78-34.62-17.21-51.68-35.96-113-48.04-211.72-37-301.81,12.42-101.22,60.83-195.46,132.85-258.56,42.74-37.43,103.05-60.69,161.31-62.21,1.98-.06,3.99-.08,5.98-.08,57.83,0,114.28,21.43,154.85,58.77,40.42,37.22,65.83,88.67,92.73,143.18,4.1,8.3,8.34,16.91,12.59,25.35.08.15.15.31.24.48,2.53,5.01-4.32,9.38-7.8,4.98Z"/>
  <path class="cls-4" d="M1115.84,842.84c.02.74.02,1.5,0,2.27-.02.46-.07.93-.12,1.41-.07.7-.19,1.41-.32,2.11-2.72,13.51-16.53,21.63-29.59,26-22.46,7.51-46.45,9.01-70.12,8.93-40.66-.14-81.53-4.87-120.3-17.07-36.68-11.54-71.52-29.97-99.99-55.77-1.05-.94-1.78-2.14-2.21-3.4h0c-.19-.59-.32-1.17-.34-1.78-.05-.39-.06-.77-.04-1.16.04-.77.18-1.55.46-2.28.14-.39.31-.77.51-1.13,4.03-7.06,6.84-14.67,8.63-22.57.4-1.83.76-3.67,1.06-5.54.17-.98.32-1.98.45-2.96.27-2.01.48-4,.64-6.02.45-5.88.44-11.87.05-17.87-.04-.46-.06-.93-.09-1.41-.09-1.15-.19-2.28-.32-3.41-.07-.79-.15-1.59-.25-2.39-.09-.9-.2-1.77-.33-2.63-.15-1.19-.33-2.4-.52-3.59-1.31-8.3-3.25-16.54-5.61-24.45-9.69-32.52-25.75-63.15-31.98-96.48-.47-2.52-.86-5.07-1.08-7.65-.05-.5-.09-1-.13-1.51-.06-.97-.09-1.96-.09-2.94,0-.73.01-1.48.06-2.21.02-.39.04-.77.08-1.16.01-.33.05-.66.09-.98.08-.8.2-1.61.34-2.4.58-3.07,1.71-5.85,3.31-8.53,1.33-2.3,3.84-3.18,6.46-3.32,2.82-.17,5.66.61,8.12,2.07,4.31,2.55,7.35,6.76,10.28,10.84,10.52,14.71,21.06,29.42,31.59,44.15,7.37,10.3,14.91,20.79,25.08,28.34,10.18,7.57,23.59,11.86,35.73,8.2,2.22-.67,4.49-1.61,6.79-1.3,3.43.47,5.82,3.52,7.87,6.31,27.23,36.96,60.69,70.51,102.07,90.4,30.98,14.9,66.04,22.01,93.71,42.44,10.08,7.47,19.54,18.43,20.05,30.46Z"/>
  <path class="cls-4" d="M1364.02,700.01c0,344.66-262.59,627.97-598.63,660.81-6.43-40.33-31.85-78.11-52.81-114.65-64.47-112.35-93.22-244.82-81.16-373.8l.15-1.55c.96.04,1.93.04,2.88.04,18.4,0,37.13-1.91,55.57-5.74,29.78-6.19,53.57-15.57,71.72-28.37,3.06-2.17,7.22-1.9,9.95.71,58.84,56.41,154.61,82.18,240.72,82.18,22.86,0,45.01-1.81,65.63-5.35,33.18-5.69,69.79-27.12,73.74-63.89,3.46-31.87-20.87-60.7-48.68-76.63-27.81-15.93-59.78-23.16-88.31-37.8-63.15-32.35-102.67-96.79-134.59-160.16-31.93-63.37-60.88-130.76-113.09-178.81-48.12-44.31-113.76-68.26-179.21-68.26-2.3,0-4.61.04-6.92.08-65.98,1.72-134.26,27.49-184.08,71.13-81.34,71.26-131.76,174.48-144.85,281.24-13.06,106.51,5.89,214.85,38.43,317.1,28.08,88.33,66.81,178.14,64.68,269.27C163.79,1151.05,35.98,940.45,35.98,700.01,35.98,333.27,333.29,35.98,700,35.98s664.02,297.29,664.02,664.03Z"/>
  <path class="cls-6" d="M1344.98,427.53c-35.24-83.37-85.71-158.22-149.99-222.49-64.27-64.28-139.13-114.75-222.5-150C886.16,18.52,794.49,0,700,0s-186.15,18.52-272.48,55.03c-83.37,35.25-158.23,85.72-222.5,150-64.28,64.27-114.76,139.12-150.01,222.49C18.51,513.84,0,605.51,0,700.01s18.51,186.15,55.02,272.47c35.25,83.37,85.72,158.22,150.01,222.49,64.27,64.28,139.13,114.73,222.5,150,86.32,36.51,178,55.02,272.48,55.02s186.16-18.51,272.49-55.02c83.37-35.27,158.23-85.72,222.5-150,64.28-64.27,114.76-139.12,149.99-222.49,36.52-86.32,55.02-178,55.02-272.47s-18.5-186.17-55.02-272.48ZM718.79,1360.49c-7.49.27-15,.4-22.5.4-56.81,0-113.68-7.36-169.05-21.86-46.1-12.06-90.52-28.92-132.4-50.25-.98-.5-1.83-1.2-2.5-2.03-.24-.28-.44-.57-.6-.87-.13-.2-.24-.4-.35-.63-.11-.24-.2-.47-.3-.71-.01-.05-.02-.07-.05-.12-.11-.33-.2-.66-.26-1-.15-.69-.22-1.41-.18-2.14.19-2.98.33-5.94.45-8.92.04-.98.07-1.97.09-2.96.04-1.31.06-2.63.08-3.95v-.06c.02-1.74.04-3.46.04-5.2,0-4.26-.08-8.5-.22-12.75,0-.09,0-.18-.01-.27-.05-1.43-.11-2.87-.18-4.31-.01-.47-.05-.92-.07-1.36-.18-3.37-.39-6.74-.65-10.1-.26-3.35-.57-6.71-.92-10.06-.01-.25-.05-.52-.07-.77-.22-2.1-.46-4.18-.71-6.26-.44-3.67-.92-7.34-1.45-10.99-.5-3.5-1.05-7.02-1.64-10.51-.39-2.32-.8-4.63-1.22-6.95-.35-1.84-.7-3.67-1.05-5.52-.32-1.67-.64-3.31-.99-4.96-.7-3.47-1.43-6.96-2.22-10.44-.37-1.67-.74-3.34-1.13-5.02-.04-.12-.07-.26-.09-.39-.92-3.97-1.9-7.93-2.88-11.87-.47-1.88-.96-3.74-1.44-5.61-1.06-4.04-2.14-8.08-3.27-12.08-.53-1.95-1.09-3.92-1.65-5.89-1.11-3.91-2.27-7.84-3.44-11.74-.47-1.57-.96-3.17-1.44-4.75-.12-.34-.22-.71-.32-1.05-.64-2.09-1.28-4.19-1.94-6.27-.76-2.45-1.54-4.9-2.3-7.32-.6-1.89-1.22-3.8-1.83-5.69-.24-.73-.46-1.45-.7-2.19-.61-1.9-1.24-3.78-1.85-5.67-.73-2.26-1.48-4.5-2.23-6.76-1.12-3.38-2.26-6.74-3.38-10.11-1.12-3.35-2.27-6.72-3.41-10.09-.74-2.23-1.51-4.45-2.27-6.7-.77-2.23-1.51-4.45-2.28-6.69-5.79-17.02-11.78-34.62-17.21-51.68-35.96-113-48.04-211.72-37-301.81,12.42-101.22,60.83-195.46,132.85-258.56,42.74-37.43,103.05-60.69,161.31-62.21,1.98-.06,3.99-.08,5.98-.08,57.83,0,114.28,21.43,154.85,58.77,40.42,37.22,65.83,88.67,92.73,143.18,4.1,8.3,8.34,16.91,12.59,25.35.08.15.15.31.24.48,2.53,5.01-4.32,9.38-7.8,4.98l-9.36-11.84-5.03-7.08c-7.87-11.03-24.26-33.98-50.52-33.98h-.02c-25.27.04-45.93,21.19-47.04,48.17-1.25,30.38,10.31,60.3,21.49,89.22,14.28,36.96,27.77,71.88,12.25,101.67-11.67,22.42-37.71,37.54-79.6,46.26-39.42,8.2-80.01,6.27-114.25-5.41-31.93-10.93-57.67-30.07-75.28-55.82-5.11-7.48-15.14-9.79-23.15-5.54-.77.41-1.49.86-2.17,1.37-4.77,3.47-7.41,8.98-7.41,14.59,0,3.46,1,6.95,3.12,10.04,21.97,32.14,53.88,55.95,93.27,69.41,12.38,4.22,25.42,7.38,38.87,9.43v.08c-12.97,136.5,17.46,277.15,85.69,396.05,3.34,5.82,6.8,11.71,10.16,17.38,13.99,23.71,27.46,46.58,34.46,68.79,1.57,4.97-1.98,10.06-7.19,10.24ZM793.2,807.31c-.19-.58-.32-1.16-.34-1.77-.05-.39-.06-.77-.04-1.16.04-.77.18-1.55.46-2.28.14-.39.31-.77.51-1.13,4.03-7.06,6.84-14.67,8.63-22.57.4-1.83.76-3.67,1.06-5.54.17-.98.32-1.98.45-2.96.27-2.01.48-4,.64-6.02.45-5.88.44-11.87.05-17.87-.04-.46-.06-.93-.09-1.41-.09-1.15-.19-2.28-.32-3.41-.07-.79-.15-1.59-.25-2.39-.09-.9-.2-1.77-.33-2.63-.15-1.19-.33-2.4-.52-3.59-1.31-8.3-3.25-16.54-5.61-24.45-9.69-32.52-25.75-63.15-31.98-96.48-.47-2.52-.86-5.07-1.08-7.65-.05-.5-.09-1-.13-1.51-.06-.97-.09-1.96-.09-2.94,0-.73.01-1.48.06-2.21.02-.39.04-.77.08-1.16.01-.33.05-.66.09-.98.08-.8.2-1.61.34-2.4.58-3.07,1.71-5.85,3.31-8.53,1.33-2.3,3.84-3.18,6.46-3.32,2.82-.17,5.66.61,8.12,2.07,4.31,2.55,7.35,6.76,10.28,10.84,10.52,14.71,21.06,29.42,31.59,44.15,7.37,10.3,14.91,20.79,25.08,28.34,10.18,7.57,23.59,11.86,35.73,8.2,2.22-.67,4.49-1.61,6.79-1.3,3.43.47,5.82,3.52,7.87,6.31,27.23,36.96,60.69,70.51,102.07,90.4,30.98,14.9,66.04,22.01,93.71,42.44,10.08,7.47,19.54,18.43,20.05,30.46.02.74.02,1.5,0,2.27-.02.46-.07.93-.12,1.41-.07.7-.19,1.41-.32,2.11-2.72,13.51-16.53,21.63-29.59,26-22.46,7.51-46.45,9.01-70.12,8.93-40.66-.14-81.53-4.87-120.3-17.07-36.68-11.54-71.52-29.97-99.99-55.77-1.05-.94-1.78-2.14-2.21-3.4h0ZM765.39,1360.82c-6.43-40.33-31.85-78.11-52.81-114.65-64.47-112.35-93.22-244.82-81.16-373.8l.15-1.55c.96.04,1.93.04,2.88.04,18.4,0,37.13-1.91,55.57-5.74,29.78-6.19,53.57-15.57,71.72-28.37,3.06-2.17,7.22-1.9,9.95.71,58.84,56.41,154.61,82.18,240.72,82.18,22.86,0,45.01-1.81,65.63-5.35,33.18-5.69,69.79-27.12,73.74-63.89,3.46-31.87-20.87-60.7-48.68-76.63-27.81-15.93-59.78-23.16-88.31-37.8-63.15-32.35-102.67-96.79-134.59-160.16-31.93-63.37-60.88-130.76-113.09-178.81-48.12-44.31-113.76-68.26-179.21-68.26-2.3,0-4.61.04-6.92.08-65.98,1.72-134.26,27.49-184.08,71.13-81.34,71.26-131.76,174.48-144.85,281.24-13.06,106.51,5.89,214.85,38.43,317.1,28.08,88.33,66.81,178.14,64.68,269.27C163.79,1151.05,35.98,940.45,35.98,700.01,35.98,333.27,333.29,35.98,700,35.98s664.02,297.29,664.02,664.03c0,344.66-262.59,627.97-598.63,660.81Z"/>
  <path class="cls-5" d="M840.52,597.47l-9.36-11.84-5.03-7.08c-7.87-11.03-24.26-33.98-50.52-33.98h-.02c-25.27.04-45.93,21.19-47.04,48.17-1.25,30.38,10.31,60.3,21.49,89.22,14.28,36.96,27.77,71.88,12.25,101.67-11.67,22.42-37.71,37.54-79.6,46.26-39.42,8.2-80.01,6.27-114.25-5.41-31.93-10.93-57.67-30.07-75.28-55.82-5.11-7.48-15.14-9.79-23.15-5.54-.77.41-1.49.86-2.17,1.37-4.77,3.47-7.41,8.98-7.41,14.59,0,3.46,1,6.95,3.12,10.04,21.97,32.14,53.88,55.95,93.27,69.41,12.38,4.22,25.42,7.38,38.87,9.43v.08c-12.97,136.5,17.46,277.15,85.69,396.05,3.34,5.82,6.8,11.71,10.16,17.38,13.99,23.71,27.46,46.58,34.46,68.79,1.57,4.97-1.98,10.06-7.19,10.24-7.49.27-15,.4-22.5.4-56.81,0-113.68-7.36-169.05-21.86-46.1-12.06-90.52-28.92-132.4-50.25-.98-.5-1.83-1.2-2.5-2.03-.21-.28-.43-.57-.6-.87-.13-.2-.24-.4-.35-.63-.11-.24-.2-.47-.3-.71-.01-.05-.02-.07-.05-.12-.11-.33-.2-.66-.26-1-.15-.69-.22-1.41-.18-2.14.19-2.98.33-5.94.45-8.92.04-.98.07-1.97.09-2.96.04-1.31.06-2.63.08-3.95v-.06c.02-1.74.04-3.46.04-5.2,0-4.26-.08-8.5-.22-12.75,0-.09,0-.18-.01-.27-.05-1.43-.11-2.87-.18-4.31-.01-.47-.05-.92-.07-1.36-.18-3.37-.39-6.74-.65-10.1-.26-3.35-.57-6.71-.92-10.06-.01-.25-.05-.52-.07-.77-.21-2.08-.44-4.18-.71-6.26-.44-3.67-.92-7.34-1.45-10.99-.5-3.5-1.05-7.02-1.64-10.51-.39-2.32-.8-4.63-1.22-6.95-.35-1.84-.7-3.67-1.05-5.52-.32-1.67-.64-3.31-.99-4.96-.7-3.47-1.43-6.96-2.22-10.44-.37-1.67-.74-3.34-1.13-5.02-.04-.12-.07-.26-.09-.39-.92-3.97-1.9-7.93-2.88-11.87-.47-1.88-.96-3.74-1.44-5.61-1.06-4.04-2.14-8.08-3.27-12.08-.53-1.95-1.09-3.92-1.65-5.89-1.11-3.91-2.27-7.84-3.44-11.74-.47-1.57-.96-3.17-1.44-4.75-.12-.34-.22-.71-.32-1.05-.64-2.09-1.28-4.19-1.94-6.27-.76-2.45-1.54-4.9-2.3-7.32-.6-1.89-1.22-3.8-1.83-5.69-.24-.73-.46-1.45-.7-2.19-.61-1.9-1.24-3.78-1.85-5.67-.73-2.26-1.48-4.5-2.23-6.76-1.11-3.38-2.23-6.74-3.38-10.11-1.12-3.35-2.27-6.72-3.41-10.09-.74-2.23-1.51-4.45-2.27-6.7-.77-2.23-1.51-4.45-2.28-6.69-5.79-17.02-11.78-34.62-17.21-51.68-35.96-113-48.04-211.72-37-301.81,12.42-101.22,60.83-195.46,132.85-258.56,42.74-37.43,103.05-60.69,161.31-62.21,1.98-.06,3.99-.08,5.98-.08,57.83,0,114.28,21.43,154.85,58.77,40.42,37.22,65.83,88.67,92.73,143.18,4.1,8.3,8.34,16.91,12.59,25.35.08.15.15.31.24.48,2.53,5.01-4.32,9.38-7.8,4.98Z"/>
  <path class="cls-1" d="M793.79,801.11l-.17,6.65c-.12-.12-.24-.25-.33-.35-.04-.04-.06-.07-.09-.08h0c-.19-.59-.32-1.17-.34-1.78-.05-.39-.06-.77-.04-1.16.04-.77.18-1.55.46-2.28.09-.15.17-.33.25-.51h.01c.08-.17.15-.32.25-.48Z"/>
  <path d="M1095.8,812.38c-27.66-20.44-62.72-27.55-93.71-42.44-41.38-19.89-74.84-53.44-102.07-90.4-2.04-2.79-4.44-5.84-7.87-6.31-2.3-.31-4.57.63-6.79,1.3-12.14,3.66-25.55-.63-35.73-8.2-10.17-7.55-17.71-18.04-25.08-28.34-10.52-14.73-21.06-29.45-31.59-44.15-2.93-4.09-5.97-8.29-10.28-10.84-2.46-1.45-5.29-2.23-8.12-2.07-2.62.14-5.13,1.02-6.46,3.32-1.59,2.68-2.73,5.46-3.31,8.53-.14.79-.26,1.59-.34,2.4.09-.76.2-1.51.34-2.26.58-3.07,1.71-5.85,3.31-8.53,1.33-2.3,3.84-3.18,6.46-3.33,2.82-.15,5.66.63,8.12,2.07,4.31,2.56,7.35,6.76,10.28,10.84,10.52,14.72,21.06,29.44,31.59,44.15,7.37,10.31,14.91,20.8,25.08,28.35,10.18,7.56,23.59,11.86,35.73,8.2,2.22-.67,4.49-1.61,6.79-1.3,3.43.47,5.82,3.52,7.87,6.31,27.23,36.95,60.69,70.51,102.07,90.4,30.98,14.9,66.04,22.01,93.71,42.44,10.03,7.43,19.47,18.34,20.05,30.32-.51-12.04-9.97-23-20.05-30.46ZM793.79,800.97c-.2.37-.37.74-.51,1.13-.28.73-.43,1.51-.46,2.28.06-.96.3-1.89.71-2.79h.01c.08-.17.15-.32.25-.48,4.06-7.11,6.87-14.77,8.63-22.71-1.8,7.9-4.61,15.51-8.63,22.57ZM391.05,1272.36c-.12,2.98-.26,5.94-.45,8.92-.05.73.02,1.45.18,2.14-.15-.69-.2-1.41-.15-2.14.19-2.98.33-5.94.43-8.92ZM390.13,1231.41c.26,3.35.47,6.73.65,10.1-.17-3.37-.38-6.74-.65-10.1Z"/>
  <path class="cls-3" d="M1115.84,842.99c.02.74.02,1.5,0,2.27-.04.41-.07.84-.12,1.26-.07.7-.19,1.41-.32,2.11-2.72,13.51-16.53,21.63-29.59,26-22.46,7.51-46.45,9.01-70.12,8.93-40.66-.14-81.53-4.87-120.3-17.07-36.68-11.54-71.52-29.97-99.99-55.77-.99-.9-1.71-2-2.11-3.18-.24-.6-.38-1.23-.44-1.87-.05-.39-.06-.77-.04-1.16.04-.77.18-1.55.46-2.28.14-.39.31-.77.51-1.13,4.03-7.06,6.84-14.67,8.63-22.57.4-1.83.76-3.67,1.06-5.54.17-.98.32-1.98.45-2.96.27-2.01.48-4,.64-6.02.45-5.88.44-11.87.05-17.87-.04-.46-.06-.93-.09-1.41-.09-1.15-.19-2.28-.32-3.41-.06-.79-.15-1.59-.25-2.39-.09-.9-.2-1.77-.33-2.63-.15-1.19-.33-2.4-.52-3.59-1.29-8.36-3.22-16.62-5.61-24.59-9.69-32.51-25.75-63.15-31.98-96.48-.45-2.46-.84-4.97-1.08-7.51-.05-.5-.09-1-.13-1.51-.06-.97-.09-1.96-.09-2.94,0-.73.01-1.48.06-2.21.02-.39.04-.77.08-1.16.01-.33.05-.66.09-.98.08-.8.2-1.61.34-2.4.58-3.07,1.71-5.85,3.31-8.53,1.33-2.3,3.84-3.18,6.46-3.32,2.82-.17,5.66.61,8.12,2.07,4.31,2.55,7.35,6.76,10.28,10.84,10.52,14.71,21.06,29.42,31.59,44.15,7.37,10.3,14.91,20.79,25.08,28.34,10.18,7.57,23.59,11.86,35.73,8.2,2.22-.67,4.49-1.61,6.79-1.3,3.43.47,5.82,3.52,7.87,6.31,27.23,36.96,60.69,70.51,102.07,90.4,30.98,14.9,66.04,22.01,93.71,42.44,10.08,7.47,19.54,18.43,20.05,30.46Z"/>
  <circle class="cls-6" cx="847.92" cy="715.03" r="17.14"/>
  <path class="cls-6" d="M541.55,573.25c.9,4.29-.25,4.76,1.97,8.32,2.07,3.33,10.53-11.89,12.78-15.1.14-.21,8.76-18,8.91-18.2,5.83-8.36,18.65,2.66,26.72-.39,11.83-4.46,8.51,20.02,19.79,26.71l.06.04c3.32,1.97,7.6-.07,8.13-3.91s-6.19-3.98-7.06-8.12c-4.29-20.45-18.58-37.83-40.09-33.76-.98.19-1.94.41-2.87.65-1.65.44-3.4-.23-4.28-1.69l-15.59-25.83c-3.38-5.6-10.65-7.4-16.25-4.01-5.6,3.38-7.4,10.65-4.02,16.25l17.62,29.17c.34.56.31,1.27-.07,1.81,0,.01-.02.02-.02.04-1.07,1.56-3.1,2.13-4.84,1.4l-34.32-14.32c-6.04-2.52-12.97.33-15.49,6.37-2.52,6.02.33,12.97,6.37,15.49l40.96,17.07c.84.35,1.45,1.09,1.62,1.98h0Z"/>
  <path class="cls-2" d="M539.56,573.89s38.27-77.49,77.74,0"/>
</svg>