<?xml version="1.0" encoding="UTF-8"?>
<svg id="Capa_2" data-name="Capa 2" xmlns="http://www.w3.org/2000/svg" xmlns:xlink="http://www.w3.org/1999/xlink" viewBox="0 0 1185.2 1185.2">
  <defs>
    <style>
      .cls-1 {
        fill: none;
      }

      .cls-2 {
        fill: #f28f31;
      }

      .cls-3 {
        fill: #d36c18;
      }

      .cls-4 {
        fill: #eee5e9;
      }

      .cls-5 {
        clip-path: url(#clippath);
      }
    </style>
    <clipPath id="clippath">
      <circle class="cls-1" cx="592.6" cy="592.6" r="580.5"/>
    </clipPath>
  </defs>
  <g id="Capa_1-2" data-name="Capa 1">
    <g>
      <g>
        <circle class="cls-4" cx="592.6" cy="592.6" r="576.77"/>
        <path d="M592.6,1177.28C270.21,1177.28,7.92,914.99,7.92,592.6S270.21,7.92,592.6,7.92s584.68,262.29,584.68,584.68-262.29,584.69-584.68,584.69ZM592.6,23.75C278.93,23.75,23.75,278.93,23.75,592.6s255.19,568.86,568.86,568.86,568.85-255.19,568.85-568.86S906.27,23.75,592.6,23.75Z"/>
      </g>
      <g class="cls-5">
        <g>
          <g>
            <polygon class="cls-2" points="234.7 589.15 298.7 524.74 317.81 437.14 332.2 502.74 341.08 583.99 348.65 660.01 339.77 742.97 329.33 786.67 302.29 759.43 255.15 658.71 228.22 597.45 234.7 589.15"/>
            <polygon class="cls-2" points="374.63 358.66 419.1 417.81 451.39 413.32 491.7 387.74 462.18 480.88 442.72 554.5 424.39 627.23 392.93 673.61 385.45 636.98 382.94 555.86 384.66 455.85 374.63 358.66"/>
            <polygon class="cls-3" points="300.25 953.94 289.6 1023.73 288.93 1082.89 270.8 1146.98 282.57 1204.24 317.88 1221.78 353.45 1181.26 372.44 1078.3 378.53 953.73 407.48 823.2 447.75 714.2 509.49 563.44 535.07 465.54 535.6 377.39 525.99 360.27 508.82 364.74 483.31 413.85 459.55 489.23 440.41 563.45 420.91 641.1 390.75 672.53 384.23 612.04 389.6 502.98 379.59 407.44 371.1 350.11 346.38 300.73 330.22 283.33 315.04 364.25 332.2 502.74 341.8 590.52 345.65 679.66 338.43 757.28 329.33 786.67 302.29 759.43 272.64 683.77 249.7 627.89 219.7 598.59 204.07 618.65 220.2 674.54 277.23 799.62 289.1 888.53 300.25 953.94"/>
            <path d="M314.33,1229.3c-1.32,0-2.64-.05-3.97-.15-21.1-1.59-38.65-15.69-44.72-35.91-2.9-9.69-4.53-19.77-4.83-29.95-.69-24.46,4.88-47.87,10.28-70.52,1.81-7.6,3.62-15.19,5.18-22.8,11.39-55.54,6.34-170.52,6.29-171.68-4.32-69.93-17.07-97.19-33.22-131.71-3.99-8.52-8.1-17.32-12.39-27.33-4.65-10.83-10.41-21.66-16.53-33.13-15.99-30-32.52-61-28.98-94.13.32-8.07,2.64-21.52,14.02-25.49,2.08-.73,5.14-1.34,8.73-.65,58.54-35.21,84.27-73,83.41-122.35-1.09-62.72,3.67-109.97,11.71-165.81.39-4.13.83-8.25,1.32-12.36,1.14-9.61,8.35-17.11,17.92-18.67.2-.03.4-.06.61-.09l1.14-.6,3.37.45c2.96.21,5.81,1.03,8.38,2.37,6.49,3.25,9.9,8.95,12.17,12.74.85,1.42,1.65,2.76,2.39,3.66,19.41,23.31,31.42,51.9,41.08,74.87,3.85,9.15,7.17,17.05,10.31,23.1,1.78,3.42,3.19,6.48,4.46,9.23,4.44,9.64,4.9,10.64,13.95,13.35,5.49,1.63,11.7.37,16.65-3.38,14-10.62,23.17-18.8,32.86-27.46,6.94-6.2,14.07-12.57,23.19-20.02,1.96-2.14,4.21-3.93,6.66-5.35l1.59-.86c4.56-2.26,9.72-3.27,14.99-2.81,7.05.12,13.91,2.53,18.29,8.83,2.55,2.72,4.56,5.94,5.88,9.53,2.55,4.32,2.73,7.47,2.82,13.27l.02,1.15c2.01,115.91-39.58,218.76-79.8,318.22-33.96,83.98-69.08,170.82-77.88,265.39-2.04,21.9-2.78,45.22-3.49,67.76-1.86,58.62-3.78,119.23-27.89,170.14-8.54,18.02-26.31,29.16-46,29.16ZM218.62,617.25c-1.57,24.02,11.89,49.26,26.1,75.92,6.11,11.47,12.44,23.33,17.53,35.23,4.11,9.6,8.14,18.2,12.03,26.51,16.7,35.69,31.12,66.52,35.77,141.91.24,5.08,5.27,119.79-6.81,178.68-1.62,7.9-3.49,15.77-5.37,23.65-5.21,21.87-10.13,42.52-9.54,63.34.22,7.65,1.49,15.55,3.68,22.82,4.22,14.08,16.69,16.09,20.42,16.37,7.81.58,17.93-2.61,23.01-13.34,21.66-45.73,23.49-103.43,25.26-159.22.73-22.96,1.48-46.7,3.6-69.44,9.17-98.59,45.06-187.33,79.77-273.16,40.99-101.37,79.71-197.11,77.79-307.42l-.02-1.18c0-.28,0-.54,0-.79-.18-.37-.34-.75-.48-1.14-.45-.69-.93-1.46-1.47-2.35l-.24.05c-.25.2-.5.4-.75.6-26.99,41.81-39.96,93.82-52.51,144.13-2.82,11.28-5.62,22.52-8.57,33.63-10.6,39.95-23.72,79.71-39.01,118.17-4.4,11.1-15.66,17.49-27.54,15.52-11.88-1.98-20.58-11.74-21.16-23.74-1.39-29.09.69-58.55,2.7-87.05,1.34-19.07,2.74-38.79,3.03-57.93,1.08-70.21-12.7-140.93-39.97-205.92-4.66,65.39,3.33,133.26,11.1,199.11,10.43,88.46,21.21,179.93,1.59,266.44-2.53,11.14-9.86,18.48-19.62,19.65-15.51,1.84-29.9-12.33-36.81-26.27-7.91-15.92-14.38-33.49-21.23-52.09-13.26-36-26.94-73.11-52.05-100.73-.07,0-.13.02-.2.02ZM241.42,601.21c27.34,31.36,42.08,71.39,55.29,107.23,6.59,17.88,12.81,34.77,20.05,49.36,1.77,3.56,3.98,6.3,5.93,8.18,17.19-80.49,7.33-164.11-3.09-252.54-.2-1.7-.4-3.4-.6-5.11-10.88,35.21-36.3,65.52-77.58,92.88ZM395.57,418.13c5.66,32.82,8.3,66.12,7.79,99.32-.31,19.9-1.73,40-3.1,59.45-1.7,24.03-3.45,48.77-3.02,72.83,13.16-34.23,24.57-69.4,33.95-104.73,2.91-10.98,5.68-22.08,8.46-33.23,7.73-31,15.62-62.63,26.86-92.72-2.16,1.7-4.42,3.44-6.8,5.25-11.93,9.04-27.33,11.95-41.16,7.82-11.73-3.51-18.44-8.39-22.98-13.98Z"/>
          </g>
          <g>
            <polygon class="cls-2" points="953.36 589.15 889.36 524.74 870.25 437.14 855.86 502.74 846.98 583.99 839.41 660.01 848.29 742.97 858.73 786.67 885.76 759.43 932.91 658.71 959.84 597.45 953.36 589.15"/>
            <polygon class="cls-2" points="813.43 358.66 768.96 417.81 736.67 413.32 696.36 387.74 725.88 480.88 745.34 554.5 763.67 627.23 795.13 673.61 802.61 636.98 805.12 555.86 803.4 455.85 813.43 358.66"/>
            <polygon class="cls-3" points="887.81 953.94 898.46 1023.73 899.13 1082.89 917.26 1146.98 905.49 1204.24 870.18 1221.78 834.61 1181.26 815.62 1078.3 809.53 953.73 780.58 823.2 740.31 714.2 678.57 563.44 652.99 465.54 652.46 377.39 662.07 360.27 679.24 364.74 704.75 413.85 728.51 489.23 747.65 563.45 767.15 641.1 797.31 672.53 803.83 612.04 798.46 502.98 808.47 407.44 816.96 350.11 841.68 300.73 857.84 283.33 873.02 364.25 855.86 502.74 846.26 590.52 842.41 679.66 849.63 757.28 858.73 786.67 885.76 759.43 915.42 683.77 938.36 627.89 968.36 598.59 983.99 618.65 967.86 674.54 910.83 799.62 898.96 888.53 887.81 953.94"/>
            <path d="M873.73,1229.3c-19.69,0-37.47-11.13-46-29.16-24.11-50.91-26.03-111.52-27.89-170.14-.71-22.55-1.45-45.86-3.49-67.76-8.8-94.57-43.91-181.4-77.88-265.39-40.22-99.46-81.81-202.31-79.8-318.22l.02-1.16c.09-5.8.27-8.95,2.82-13.27,1.32-3.59,3.34-6.82,5.9-9.54,4.38-6.29,11.24-8.7,18.28-8.82,5.3-.46,10.43.55,15,2.82l1.57.84c2.46,1.42,4.72,3.23,6.69,5.38,9.11,7.44,16.24,13.81,23.16,19.99,9.7,8.67,18.86,16.85,32.88,27.48,4.94,3.75,11.16,5.01,16.65,3.37,9.06-2.71,9.52-3.71,13.95-13.34,1.27-2.76,2.68-5.82,4.46-9.24,3.15-6.05,6.46-13.94,10.3-23.08,9.65-22.98,21.67-51.59,41.09-74.9.75-.89,1.55-2.23,2.39-3.65,2.25-3.76,5.63-9.43,12.06-12.69,2.6-1.38,5.49-2.22,8.5-2.43l3.36-.45,1.15.6c.19.03.39.06.58.09,9.57,1.56,16.78,9.06,17.94,18.66.5,4.16.94,8.33,1.33,12.5,8.03,55.78,12.79,103.02,11.7,165.68-.85,49.35,24.88,87.14,83.41,122.35,3.59-.68,6.64-.08,8.73.65,11.39,3.97,13.71,17.42,14.03,25.49,3.54,33.13-13,64.14-28.98,94.14-6.11,11.47-11.88,22.3-16.52,33.13-4.29,10.01-8.4,18.81-12.38,27.32-16.15,34.52-28.91,61.78-33.24,131.95-.04.93-5.08,115.92,6.3,171.45,1.56,7.62,3.37,15.21,5.19,22.81,5.39,22.64,10.97,46.05,10.27,70.5-.28,10.14-1.91,20.22-4.82,29.95-6.07,20.23-23.63,34.33-44.73,35.92-1.32.1-2.65.15-3.97.15ZM666.23,377.14c0,.25,0,.51,0,.79l-.02,1.19c-1.92,110.3,36.8,206.04,77.79,307.41,34.71,85.82,70.6,174.57,79.77,273.16,2.12,22.74,2.87,46.48,3.6,69.44,1.77,55.8,3.6,113.5,25.26,159.22,5.08,10.73,15.21,13.92,23.01,13.34,3.72-.28,16.2-2.29,20.42-16.37,2.19-7.3,3.46-15.2,3.68-22.82.59-20.82-4.33-41.47-9.54-63.34-1.88-7.88-3.75-15.77-5.37-23.67-12.07-58.89-7.05-173.6-6.82-178.45,4.67-75.62,19.09-106.45,35.8-142.15,3.89-8.31,7.91-16.9,12.02-26.5,5.1-11.9,11.42-23.76,17.53-35.23,14.21-26.66,27.66-51.9,26.1-75.92-.07,0-.13-.02-.21-.02-25.11,27.63-38.78,64.74-52.05,100.73-6.85,18.6-13.32,36.16-21.23,52.09-6.92,13.94-21.42,28.11-36.81,26.27-9.76-1.16-17.09-8.51-19.62-19.65-19.62-86.51-8.84-177.98,1.59-266.44,7.76-65.86,15.77-133.73,11.11-199.12-27.28,64.99-41.06,135.71-39.98,205.93.3,19.14,1.69,38.86,3.04,57.94,2.01,28.49,4.09,57.95,2.7,87.04-.58,12-9.28,21.76-21.15,23.74-11.83,1.96-23.14-4.41-27.56-15.52-15.29-38.48-28.42-78.24-39.01-118.17-2.95-11.12-5.75-22.37-8.58-33.66-12.55-50.29-25.53-102.29-52.49-144.08-.26-.2-.5-.41-.77-.61-.07-.02-.15-.03-.23-.05-.56.93-1.06,1.72-1.49,2.38-.14.38-.3.75-.47,1.11ZM869.06,508.34c-.2,1.7-.4,3.41-.61,5.11-10.43,88.43-20.28,172.05-3.09,252.54,1.95-1.88,4.16-4.62,5.93-8.19,7.24-14.59,13.47-31.48,20.05-49.36,13.2-35.84,27.95-75.87,55.29-107.23-41.28-27.36-66.7-57.66-77.57-92.88ZM721.54,419.04c11.23,30.09,19.12,61.7,26.85,92.69,2.79,11.16,5.57,22.28,8.48,33.27,9.37,35.32,20.77,70.51,33.95,104.75.43-24.06-1.32-48.8-3.02-72.84-1.38-19.45-2.8-39.56-3.11-59.46-.51-33.2,2.13-66.5,7.79-99.31-4.54,5.59-11.25,10.47-22.98,13.97-13.86,4.14-29.24,1.22-41.16-7.82-2.39-1.81-4.65-3.56-6.8-5.26Z"/>
          </g>
        </g>
      </g>
      <path d="M592.6,1185.2C265.84,1185.2,0,919.36,0,592.6S265.84,0,592.6,0s592.6,265.84,592.6,592.6-265.84,592.6-592.6,592.6ZM592.6,31.66C283.3,31.66,31.66,283.3,31.66,592.6s251.64,560.94,560.94,560.94,560.94-251.64,560.94-560.94S901.9,31.66,592.6,31.66Z"/>
    </g>
  </g>
</svg>